<svg width="80" height="63" viewBox="0 0 80 63" fill="none" xmlns="http://www.w3.org/2000/svg">
<path d="M1 61.9998V32.9998C3 31.5002 4 31.5 6 32.9998V56.9998H74V32.9998C76 31.5 77 31.5 79 32.9998V61.9998H1Z" fill="#C9C9C9" stroke="#C9C9C9"/>
<path d="M38.2322 43.7678C39.2085 44.7441 40.7915 44.7441 41.7678 43.7678L57.6777 27.8579C58.654 26.8816 58.654 25.2986 57.6777 24.3223C56.7014 23.346 55.1184 23.346 54.1421 24.3223L40 38.4645L25.8579 24.3223C24.8816 23.346 23.2986 23.346 22.3223 24.3223C21.346 25.2986 21.346 26.8816 22.3223 27.8579L38.2322 43.7678ZM37.5 0V42H42.5V0L37.5 0Z" fill="#C9C9C9"/>
</svg>
