<svg width="14" height="14" viewBox="0 0 14 14" fill="none" xmlns="http://www.w3.org/2000/svg">
<circle cx="7" cy="7" r="7" fill="#125DCE"/>
<path d="M5.95996 8.63184V8.27051C5.95996 7.95801 6.02669 7.6862 6.16016 7.45508C6.29362 7.22396 6.53776 6.97819 6.89258 6.71777C7.23438 6.47363 7.45898 6.27507 7.56641 6.12207C7.67708 5.96908 7.73242 5.79818 7.73242 5.60938C7.73242 5.39779 7.6543 5.23665 7.49805 5.12598C7.3418 5.0153 7.1237 4.95996 6.84375 4.95996C6.35547 4.95996 5.79883 5.11947 5.17383 5.43848L4.6416 4.36914C5.36751 3.96224 6.13737 3.75879 6.95117 3.75879C7.62174 3.75879 8.15397 3.91992 8.54785 4.24219C8.94499 4.56445 9.14355 4.99414 9.14355 5.53125C9.14355 5.88932 9.06217 6.19857 8.89941 6.45898C8.73665 6.7194 8.42741 7.01237 7.97168 7.33789C7.65918 7.56901 7.46061 7.74479 7.37598 7.86523C7.2946 7.98568 7.25391 8.14355 7.25391 8.33887V8.63184H5.95996ZM5.80371 10.3018C5.80371 10.0283 5.87695 9.82161 6.02344 9.68164C6.16992 9.54167 6.38314 9.47168 6.66309 9.47168C6.93327 9.47168 7.1416 9.54329 7.28809 9.68652C7.43783 9.82975 7.5127 10.0348 7.5127 10.3018C7.5127 10.5589 7.43783 10.7624 7.28809 10.9121C7.13835 11.0586 6.93001 11.1318 6.66309 11.1318C6.38965 11.1318 6.17806 11.0602 6.02832 10.917C5.87858 10.7705 5.80371 10.5654 5.80371 10.3018Z" fill="white"/>
</svg>
