<svg width="118" height="157" viewBox="0 0 118 157" fill="none" xmlns="http://www.w3.org/2000/svg">
<path fill-rule="evenodd" clip-rule="evenodd" d="M86.7992 1H6C3.23858 1 1 3.23858 1 6V151C1 153.761 3.23858 156 6 156H112C114.761 156 117 153.761 117 151V37.0695L116.902 36.9524L116.71 24.6373L94.67 1.09668H86.8801L86.7992 1ZM89.9624 4.77793L90.0437 4.875H88.7733V25.2188C88.6869 26.1023 88.9516 26.3942 89.6433 26.7687H113.23L113.23 26.7686L92.7366 4.77793H89.9624ZM113.23 29.9656H85.8733C84.81 29.4812 84.6167 29.0938 84.6167 27.9312V4.875H8.86667C6.65753 4.875 4.86667 6.66586 4.86667 8.875V148.125C4.86667 150.334 6.65753 152.125 8.86667 152.125H109.133C111.342 152.125 113.133 150.334 113.133 148.125V32.4514L115.06 34.752L113.23 32.4842L113.23 29.9656Z" fill="#C9C9C9"/>
<path d="M86.7992 1L87.1826 0.679016L87.0327 0.5H86.7992V1ZM117 37.0695H117.5V36.8878L117.383 36.7485L117 37.0695ZM116.902 36.9524L116.402 36.9602L116.405 37.1375L116.519 37.2734L116.902 36.9524ZM116.71 24.6373L117.21 24.6295L117.207 24.4365L117.075 24.2956L116.71 24.6373ZM94.67 1.09668L95.035 0.754951L94.8868 0.59668H94.67V1.09668ZM86.8801 1.09668L86.4968 1.41766L86.6467 1.59668H86.8801V1.09668ZM89.9624 4.77793V4.27793H88.8917L89.5791 5.09892L89.9624 4.77793ZM90.0437 4.875V5.375H91.1145L90.4271 4.55401L90.0437 4.875ZM88.7733 4.875V4.375H88.2733V4.875H88.7733ZM88.7733 25.2188L89.271 25.2675L89.2733 25.2432V25.2188H88.7733ZM89.6433 26.7687L89.4053 27.2084L89.5167 27.2687H89.6433V26.7687ZM113.23 26.7687V27.2687H113.861L113.717 26.6542L113.23 26.7687ZM113.23 26.7686L113.717 26.654L113.686 26.5248L113.596 26.4277L113.23 26.7686ZM92.7366 4.77793L93.1024 4.43705L92.9541 4.27793H92.7366V4.77793ZM113.23 29.9656L113.73 29.9656L113.73 29.4656H113.23V29.9656ZM85.8733 29.9656L85.6661 30.4206L85.7648 30.4656H85.8733V29.9656ZM84.6167 4.875H85.1167V4.375H84.6167V4.875ZM113.133 32.4514L113.517 32.1305L112.633 31.0754V32.4514H113.133ZM115.06 34.752L114.676 35.073L115.449 34.4381L115.06 34.752ZM113.23 32.4842L112.73 32.4842V32.6607L112.841 32.7981L113.23 32.4842ZM6 1.5H86.7992V0.5H6V1.5ZM1.5 6C1.5 3.51472 3.51472 1.5 6 1.5V0.5C2.96243 0.5 0.5 2.96244 0.5 6H1.5ZM1.5 151V6H0.5V151H1.5ZM6 155.5C3.51472 155.5 1.5 153.485 1.5 151H0.5C0.5 154.038 2.96244 156.5 6 156.5V155.5ZM112 155.5H6V156.5H112V155.5ZM116.5 151C116.5 153.485 114.485 155.5 112 155.5V156.5C115.038 156.5 117.5 154.038 117.5 151H116.5ZM116.5 37.0695V151H117.5V37.0695H116.5ZM116.519 37.2734L116.617 37.3905L117.383 36.7485L117.285 36.6314L116.519 37.2734ZM117.402 36.9446L117.21 24.6295L116.21 24.6451L116.402 36.9602L117.402 36.9446ZM117.075 24.2956L95.035 0.754951L94.305 1.43841L116.345 24.979L117.075 24.2956ZM94.67 0.59668H86.8801V1.59668H94.67V0.59668ZM86.4158 1.32098L86.4968 1.41766L87.2635 0.775696L87.1826 0.679016L86.4158 1.32098ZM89.5791 5.09892L89.6604 5.19599L90.4271 4.55401L90.3458 4.45694L89.5791 5.09892ZM90.0437 4.375H88.7733V5.375H90.0437V4.375ZM88.2733 4.875V25.2188H89.2733V4.875H88.2733ZM88.2757 25.17C88.2279 25.6585 88.2658 26.0817 88.4908 26.4469C88.7072 26.7982 89.0516 27.017 89.4053 27.2084L89.8814 26.3291C89.5433 26.146 89.4095 26.0316 89.3422 25.9224C89.2835 25.827 89.2323 25.6625 89.271 25.2675L88.2757 25.17ZM89.6433 27.2687H113.23V26.2687H89.6433V27.2687ZM112.743 26.8831L112.743 26.8833L113.717 26.6542L113.717 26.654L112.743 26.8831ZM92.3708 5.11881L112.864 27.1094L113.596 26.4277L93.1024 4.43705L92.3708 5.11881ZM89.9624 5.27793H92.7366V4.27793H89.9624V5.27793ZM113.23 29.4656H85.8733V30.4656H113.23V29.4656ZM86.0806 29.5106C85.5693 29.2777 85.3748 29.1122 85.2752 28.9459C85.1703 28.7707 85.1167 28.5071 85.1167 27.9312H84.1167C84.1167 28.5179 84.1597 29.0293 84.4173 29.4596C84.6802 29.8987 85.114 30.1692 85.6661 30.4206L86.0806 29.5106ZM85.1167 27.9312V4.875H84.1167V27.9312H85.1167ZM84.6167 4.375H8.86667V5.375H84.6167V4.375ZM8.86667 4.375C6.38139 4.375 4.36667 6.38972 4.36667 8.875H5.36667C5.36667 6.942 6.93367 5.375 8.86667 5.375V4.375ZM4.36667 8.875V148.125H5.36667V8.875H4.36667ZM4.36667 148.125C4.36667 150.61 6.38139 152.625 8.86667 152.625V151.625C6.93367 151.625 5.36667 150.058 5.36667 148.125H4.36667ZM8.86667 152.625H109.133V151.625H8.86667V152.625ZM109.133 152.625C111.619 152.625 113.633 150.61 113.633 148.125H112.633C112.633 150.058 111.066 151.625 109.133 151.625V152.625ZM113.633 148.125V32.4514H112.633V148.125H113.633ZM112.75 32.7724L114.676 35.073L115.443 34.431L113.517 32.1305L112.75 32.7724ZM112.841 32.7981L114.67 35.066L115.449 34.4381L113.619 32.1702L112.841 32.7981ZM112.73 29.9656L112.73 32.4842L113.73 32.4842L113.73 29.9656L112.73 29.9656Z" fill="#C9C9C9"/>
<rect x="13" y="62" width="92" height="4" fill="#C9C9C9"/>
<rect x="13" y="76" width="92" height="4" fill="#C9C9C9"/>
<rect x="13" y="90" width="92" height="4" fill="#C9C9C9"/>
<rect x="13" y="104" width="40" height="4" fill="#C9C9C9"/>
<rect x="12" y="118" width="40" height="4" fill="#C9C9C9"/>
<rect x="12" y="132" width="40" height="4" fill="#C9C9C9"/>
<path d="M92.4023 127.074C92.4023 129.145 91.6536 130.811 90.1562 132.074C88.6589 133.324 86.5625 134.073 83.8672 134.32V138.324H81.1914V134.398C78.0143 134.333 75.2279 133.773 72.832 132.719V127.562C73.9648 128.122 75.3255 128.617 76.9141 129.047C78.5156 129.477 79.9414 129.73 81.1914 129.809V123.754L79.8828 123.246C77.3047 122.23 75.4753 121.13 74.3945 119.945C73.3268 118.747 72.793 117.27 72.793 115.512C72.793 113.624 73.5286 112.074 75 110.863C76.4844 109.639 78.5482 108.897 81.1914 108.637V105.648H83.8672V108.559C86.849 108.689 89.5443 109.288 91.9531 110.355L90.1172 114.926C88.0859 114.092 86.0026 113.585 83.8672 113.402V119.164C86.4062 120.141 88.2096 120.987 89.2773 121.703C90.3581 122.419 91.1458 123.207 91.6406 124.066C92.1484 124.926 92.4023 125.928 92.4023 127.074ZM86.5234 127.367C86.5234 126.82 86.3021 126.358 85.8594 125.98C85.4167 125.603 84.7526 125.212 83.8672 124.809V129.672C85.638 129.372 86.5234 128.604 86.5234 127.367ZM78.6719 115.512C78.6719 116.085 78.8672 116.56 79.2578 116.938C79.6615 117.302 80.306 117.68 81.1914 118.07V113.48C79.5117 113.728 78.6719 114.405 78.6719 115.512Z" fill="#C9C9C9"/>
<path d="M17.1162 55V39.2949H19.6836V55H17.1162ZM36.9248 55H33.7773L26.0537 42.4854H25.9678L26.0215 43.1836C26.1217 44.5156 26.1719 45.7331 26.1719 46.8359V55H23.8408V39.2949H26.9561L34.6582 51.7451H34.7227C34.7083 51.5804 34.6797 50.9824 34.6367 49.9512C34.5938 48.9128 34.5723 48.1035 34.5723 47.5234V39.2949H36.9248V55ZM50.0195 39.2949H52.6836L47.1836 55H44.4766L38.998 39.2949H41.6406L44.917 49.0596C45.0889 49.5251 45.2715 50.1266 45.4648 50.8643C45.6582 51.5947 45.7835 52.139 45.8408 52.4971C45.9339 51.9528 46.0771 51.3226 46.2705 50.6064C46.4639 49.8903 46.6214 49.3604 46.7432 49.0166L50.0195 39.2949ZM68.7002 47.126C68.7002 49.6826 68.0592 51.6699 66.7773 53.0879C65.5026 54.5059 63.6943 55.2148 61.3525 55.2148C58.9821 55.2148 57.1595 54.513 55.8848 53.1094C54.6172 51.6986 53.9834 49.6969 53.9834 47.1045C53.9834 44.512 54.6208 42.5212 55.8955 41.1318C57.1774 39.7425 59.0036 39.0479 61.374 39.0479C63.7087 39.0479 65.5133 39.7533 66.7881 41.1641C68.0628 42.5749 68.7002 44.5622 68.7002 47.126ZM56.7119 47.126C56.7119 49.0596 57.1022 50.5277 57.8828 51.5303C58.6634 52.5257 59.82 53.0234 61.3525 53.0234C62.8779 53.0234 64.0273 52.5293 64.8008 51.541C65.5814 50.5527 65.9717 49.0811 65.9717 47.126C65.9717 45.1995 65.585 43.7386 64.8115 42.7432C64.0452 41.7477 62.8994 41.25 61.374 41.25C59.8343 41.25 58.6706 41.7477 57.8828 42.7432C57.1022 43.7386 56.7119 45.1995 56.7119 47.126ZM72.0732 55V39.2949H74.6406V55H72.0732ZM85.4795 41.2715C84.0042 41.2715 82.8441 41.7943 81.999 42.8398C81.154 43.8854 80.7314 45.3285 80.7314 47.1689C80.7314 49.0954 81.1361 50.5527 81.9453 51.541C82.7617 52.5293 83.9398 53.0234 85.4795 53.0234C86.1455 53.0234 86.79 52.959 87.4131 52.8301C88.0361 52.694 88.6842 52.5221 89.3574 52.3145V54.5166C88.1257 54.9821 86.7292 55.2148 85.168 55.2148C82.8691 55.2148 81.1038 54.5202 79.8721 53.1309C78.6403 51.7344 78.0244 49.7399 78.0244 47.1475C78.0244 45.5146 78.3216 44.0859 78.916 42.8613C79.5176 41.6367 80.3841 40.6986 81.5156 40.0469C82.6471 39.3952 83.9756 39.0693 85.501 39.0693C87.1051 39.0693 88.5876 39.4059 89.9482 40.0791L89.0244 42.2168C88.4945 41.9661 87.9323 41.7477 87.3379 41.5615C86.7507 41.3682 86.1312 41.2715 85.4795 41.2715ZM101.625 55H92.7412V39.2949H101.625V41.4648H95.3086V45.7402H101.228V47.8887H95.3086V52.8193H101.625V55Z" fill="#C9C9C9"/>
</svg>
