<svg width="20" height="20" viewBox="0 0 20 20" fill="none" xmlns="http://www.w3.org/2000/svg">
<path d="M1.48828 2.79971C1.48828 2.05054 2.19514 1.53761 2.84629 1.81428L7.47447 3.78079C7.85209 3.94124 8.09996 4.33175 8.09996 4.76622V18.9386C8.09996 19.6878 7.3931 20.2007 6.74195 19.924L2.11378 17.9575C1.73616 17.7971 1.48828 17.4065 1.48828 16.9721V2.79971Z" fill="#025EAA"/>
<path fill-rule="evenodd" clip-rule="evenodd" d="M16.9745 5.26467L19.8672 8.63881C20.0447 8.84586 20.0447 9.18156 19.8672 9.38862L16.9745 12.7628C16.797 12.9698 16.5092 12.9698 16.3317 12.7628C16.1542 12.5557 16.1542 12.22 16.3317 12.013L18.4484 9.54391H10.4551V8.48352H18.4484L16.3317 6.01448C16.1542 5.80742 16.1542 5.47172 16.3317 5.26467C16.5092 5.05761 16.797 5.05761 16.9745 5.26467Z" fill="#025EAA"/>
<path d="M10.9091 9.01359C10.9091 9.30641 10.7056 9.54379 10.4545 9.54379C10.2035 9.54379 10 9.30641 10 9.01359C10 8.72078 10.2035 8.4834 10.4545 8.4834C10.7056 8.4834 10.9091 8.72078 10.9091 9.01359Z" fill="#025EAA"/>
<path fill-rule="evenodd" clip-rule="evenodd" d="M0 1.06039C0 0.474794 0.443899 0 0.991752 0H12.8928C13.1743 0 13.4284 0.1253 13.6088 0.32654C13.7796 0.517079 13.8845 0.775618 13.8845 1.06039V5.47869H13.8681C13.7916 5.88203 13.4581 6.18561 13.0581 6.18561C12.6581 6.18561 12.3246 5.88203 12.2481 5.47869H12.2316V2.82771C12.2316 2.24211 11.7877 1.76732 11.2399 1.76732H2.64467C2.09682 1.76732 1.65292 2.24211 1.65292 2.82771V15.1989C1.65292 15.7845 2.09682 16.2593 2.64467 16.2593H11.2399C11.7877 16.2593 12.2316 15.7845 12.2316 15.1989V12.548H12.2481C12.3246 12.1446 12.6581 11.841 13.0581 11.841C13.4581 11.841 13.7916 12.1446 13.8681 12.548H13.8845V16.9663C13.8845 17.5519 13.4406 18.0266 12.8928 18.0266H0.991752C0.443899 18.0266 0 17.5519 0 16.9663V1.06039Z" fill="#025EAA"/>
</svg>
