<svg width="260" height="80" viewBox="0 0 260 80" fill="none" xmlns="http://www.w3.org/2000/svg">
<path fill-rule="evenodd" clip-rule="evenodd" d="M2.95033 62.9149C5.73497 67.4561 10.5874 68.6483 23.6195 68.9507L23.7438 68.947C21.9722 65.8549 20.9576 62.261 20.9576 58.4264C20.9576 46.8464 30.2115 37.4586 41.6267 37.4586C53.042 37.4586 62.2962 46.8464 62.2962 58.4264C62.2962 61.8149 61.5036 65.0155 60.0965 67.8489L60.4166 67.8392L182.866 66.4095L183.154 66.3852C182.161 63.9313 181.613 61.2434 181.613 58.4264C181.613 46.8464 190.867 37.4586 202.283 37.4586C213.698 37.4586 222.952 46.8464 222.952 58.4264C222.952 60.0386 222.772 61.6089 222.433 63.1167L222.952 63.0737C233.062 62.7313 238.662 62.0501 248.631 60.6907C252.499 59.8107 254.452 59.1967 256.304 57.1961L256.617 55.1313C257.179 53.2731 257.742 52.4895 258.966 51.3192L258.991 51.1525C259.411 48.3495 259.654 46.727 258.966 44.6477C257.464 44.0392 256.824 43.5289 256.304 42.1058C255.699 39.1719 255.409 36.7664 255.116 34.3416C254.744 31.2507 254.367 28.1281 253.329 23.8384C252.008 22.4996 251.257 22.3305 249.884 23.5207C215.332 11.902 197.013 6.42105 169.556 1.75881C154.381 0.731596 145.771 0.499111 130.254 0.646868C123.033 0.874808 119.766 1.57596 114.439 3.18844C101.743 9.20008 94.7878 13.1696 82.4956 20.6615C81.3593 20.7218 80.2428 20.7809 79.145 20.8389L79.1131 20.8406C52.979 22.2227 37.3228 23.0507 10.623 27.1743V22.5677C10.1387 21.6797 9.83403 21.6318 9.2137 22.5677V27.6508C2.47668 29.3687 1.36972 34.6186 0.601562 45.918V52.2719C0.80866 55.5477 1.63878 56.8173 5.2991 57.3549C5.85478 59.0567 5.90396 60.0355 5.45568 61.8028C4.28265 61.8889 3.74848 62.1567 2.95033 62.9149ZM157.343 21.0976C158.157 15.492 158.654 12.3572 159.691 6.80141C168.278 8.1679 173.016 9.41044 181.3 12.6787C184.872 14.475 185.723 16.6232 186.154 20.7799L157.343 21.0976ZM91.2639 21.733C91.7653 21.733 133.803 21.3097 154.524 21.0979L157.029 6.64287C146.292 5.28202 139.721 4.97257 126.652 5.53093C116.859 5.95675 102.029 14.1825 91.2639 21.733Z" fill="#C4C4C4"/>
<path fill-rule="evenodd" clip-rule="evenodd" d="M130.26 0.949167C123.079 1.17602 119.838 1.8708 114.547 3.47147C101.876 9.47196 94.9311 13.4356 82.651 20.9201L82.5866 20.9595L82.5113 20.9635C81.375 21.0238 80.2586 21.0828 79.1608 21.1409L79.1319 21.1424L79.1289 21.1426C52.9965 22.5246 37.3528 23.352 10.6688 27.4731L10.3222 27.5266V22.6458C10.2213 22.4669 10.1375 22.3449 10.0659 22.2675C10.0269 22.2255 9.9983 22.2043 9.9803 22.1941C9.97182 22.1892 9.9664 22.1873 9.96399 22.1866C9.96273 22.1862 9.96201 22.1861 9.96171 22.186H9.96014C9.95948 22.1861 9.95822 22.1863 9.95629 22.1867C9.9525 22.1876 9.94534 22.1898 9.9345 22.195C9.91187 22.2059 9.87739 22.2281 9.83038 22.2713C9.74528 22.3494 9.642 22.4746 9.51477 22.6601V27.886L9.28775 27.9439C7.63748 28.3647 6.34963 28.997 5.32898 29.8712C4.30886 30.7446 3.54025 31.8724 2.94728 33.307C1.75524 36.1912 1.28714 40.2749 0.902633 45.9276V52.2615C1.00607 53.8858 1.26296 54.9282 1.88185 55.6397C2.49947 56.3494 3.53044 56.7882 5.34269 57.0543L5.52695 57.0815L5.58511 57.2597C5.86727 58.124 6.02752 58.824 6.05473 59.5421C6.08199 60.2603 5.97541 60.9779 5.7474 61.8773L5.69378 62.0882L5.47772 62.1046C4.90968 62.1458 4.52166 62.23 4.18623 62.3821C3.9046 62.51 3.64486 62.6931 3.33925 62.9664C4.67443 65.0415 6.49667 66.3724 9.52374 67.23C12.6086 68.1033 16.9279 68.4803 23.2271 68.6379C21.5885 65.6064 20.6568 62.1258 20.6568 58.4258C20.6568 46.6803 30.0433 37.1549 41.6269 37.1549C53.2104 37.1549 62.5973 46.6803 62.5973 58.4258C62.5973 61.684 61.8744 64.7718 60.5829 67.533L182.721 66.1076C181.811 63.7246 181.313 61.1337 181.313 58.4258C181.313 46.6803 190.699 37.1549 202.283 37.1549C213.866 37.1549 223.253 46.6803 223.253 58.4258C223.253 59.9179 223.101 61.3743 222.813 62.7803L222.934 62.77H222.941C233.033 62.4282 238.621 61.7494 248.579 60.3918C252.391 59.5234 254.259 58.9276 256.021 57.0567L256.323 55.0633L256.33 55.0421C256.615 54.0979 256.906 53.4094 257.29 52.8034C257.657 52.2234 258.102 51.7318 258.684 51.1706L258.694 51.1064C259.105 48.3555 259.332 46.8118 258.723 44.8743C258.028 44.5852 257.491 44.2997 257.063 43.9046C256.604 43.4797 256.292 42.9494 256.022 42.2094L256.014 42.1888L256.01 42.167C255.402 39.2203 255.11 36.804 254.818 34.3803V34.3773C254.448 31.3082 254.075 28.2208 253.057 23.992C252.429 23.3643 251.99 23.0778 251.592 23.0315C251.199 22.986 250.753 23.1669 250.081 23.7497L249.951 23.8621L249.789 23.8075C215.248 12.1924 196.946 6.71729 169.521 2.05947C154.364 1.03371 145.763 0.801591 130.26 0.949167ZM60.4204 68.1415L59.6021 68.1658L59.8275 67.7124C61.2142 64.9209 61.9954 61.7664 61.9954 58.4258C61.9954 47.0106 52.8739 37.7609 41.6269 37.7609C30.3799 37.7609 21.2586 47.0106 21.2586 58.4258C21.2586 62.2058 22.2587 65.7476 24.0046 68.7949L24.2562 69.2343L23.6207 69.2531H23.6127C17.0973 69.1015 12.5916 68.7282 9.36076 67.813C6.10901 66.8924 4.13203 65.4179 2.69442 63.073L2.56556 62.8634L2.744 62.6937C3.15355 62.3046 3.51495 62.0221 3.93892 61.83C4.31086 61.6609 4.7144 61.5688 5.21564 61.5185C5.39892 60.7518 5.47554 60.1512 5.45331 59.5652C5.43083 58.9724 5.30665 58.3785 5.0701 57.6258C3.32595 57.3506 2.16758 56.8876 1.42918 56.0391C0.667381 55.164 0.405452 53.9367 0.301389 52.2906L0.300781 52.2809V45.907L0.301484 45.8967C0.684997 40.2555 1.15462 36.0676 2.39163 33.0743C3.01354 31.5694 3.83288 30.3567 4.93912 29.4092C5.99568 28.5046 7.2999 27.8544 8.91292 27.4161V22.4752L8.9636 22.3988C9.12291 22.1584 9.27433 21.9616 9.42492 21.8233C9.57375 21.6867 9.75822 21.574 9.97784 21.5801C10.2 21.5864 10.3737 21.7115 10.5058 21.854C10.6383 21.9969 10.7625 22.1931 10.8869 22.4212L10.9241 22.4893V26.8206C37.4281 22.741 53.074 21.9136 79.0946 20.5375L79.0976 20.5373L79.1687 20.5335C80.2297 20.4775 81.3076 20.4204 82.4042 20.3623C94.6621 12.8923 101.624 8.92056 114.311 2.91353L114.331 2.90395L114.352 2.89753C119.703 1.27814 122.995 0.572135 130.244 0.343286L130.251 0.343166C145.776 0.195348 154.393 0.428015 169.576 1.45577L169.591 1.4568L169.607 1.45929C197.044 6.11832 215.366 11.5953 249.82 23.1789C250.467 22.643 251.046 22.3582 251.661 22.4295C252.299 22.5035 252.882 22.9544 253.543 23.6243L253.602 23.6841L253.621 23.7661C254.663 28.0732 255.042 31.21 255.415 34.3021V34.3046C255.707 36.7233 255.995 39.1112 256.595 42.0215C256.842 42.693 257.108 43.1234 257.47 43.4579C257.842 43.8015 258.336 44.0652 259.078 44.3658L259.208 44.4179L259.252 44.5512C259.963 46.6997 259.71 48.3876 259.294 51.1573L259.248 51.4664L259.174 51.5379C258.569 52.1167 258.142 52.5852 257.797 53.1294C257.456 53.6688 257.186 54.2955 256.912 55.1979L256.588 57.3337L256.524 57.4021C254.604 59.4773 252.566 60.1058 248.698 60.9858L248.685 60.9888L248.672 60.9906C238.701 62.35 233.089 63.0324 222.969 63.3755L222.048 63.4518L222.139 63.0488C222.474 61.5627 222.651 60.0155 222.651 58.4258C222.651 47.0106 213.53 37.7609 202.283 37.7609C191.035 37.7609 181.914 47.0106 181.914 58.4258C181.914 61.2034 182.454 63.8518 183.433 66.27L183.588 66.6524L182.88 66.7118L60.4258 68.1409L60.4204 68.1415ZM156.679 6.90329C146.144 5.57832 139.591 5.2808 126.665 5.83298C121.832 6.04317 115.721 8.18359 109.453 11.2324C103.503 14.1267 97.4403 17.8254 92.2409 21.4207C98.6801 21.3596 135.225 20.9914 154.271 20.7967L156.679 6.90329ZM126.64 5.22747C139.724 4.6685 146.312 4.97844 157.068 6.34153L157.38 6.38123L154.777 21.3977L154.527 21.4003C133.808 21.612 91.7672 22.0354 91.2641 22.0354H90.3059L91.0919 21.4837C96.4839 17.7016 102.897 13.7487 109.191 10.6867C115.478 7.6285 121.68 5.44317 126.64 5.22747ZM159.45 6.45547L159.739 6.50141C168.345 7.87117 173.104 9.11923 181.41 12.3959L181.423 12.4009L181.435 12.4069C183.257 13.3237 184.417 14.3466 185.167 15.6953C185.912 17.0332 186.237 18.6615 186.454 20.7477L186.488 21.0786L156.994 21.4038L157.045 21.053C157.86 15.4445 158.358 12.3055 159.396 6.74474L159.45 6.45547ZM159.934 7.1462C158.956 12.4027 158.462 15.5015 157.692 20.79L185.819 20.4799C185.605 18.5764 185.287 17.15 184.643 15.9917C183.968 14.7808 182.919 13.8331 181.178 12.9552C173.016 9.7359 168.313 8.4908 159.934 7.1462Z" fill="#F5F5F5"/>
<path d="M222.951 58.4259C222.951 70.0059 213.698 79.3938 202.283 79.3938C190.867 79.3938 181.613 70.0059 181.613 58.4259C181.613 46.8459 190.867 37.458 202.283 37.458C213.698 37.458 222.951 46.8459 222.951 58.4259Z" fill="#C4C4C4"/>
<path fill-rule="evenodd" clip-rule="evenodd" d="M202.283 57.2862L201.317 57.8523V58.9989L202.283 59.565L203.249 58.9989V57.8523L202.283 57.2862ZM204.453 57.1547L202.283 55.8838L200.113 57.1547V59.6965L202.283 60.9674L204.453 59.6965V57.1547Z" fill="#F5F5F5"/>
<path fill-rule="evenodd" clip-rule="evenodd" d="M199.15 41.5889L200.716 56.838H203.848L205.414 41.5889H199.15ZM200.485 42.801L201.802 55.6258H202.762L204.08 42.801H200.485Z" fill="#F5F5F5"/>
<path fill-rule="evenodd" clip-rule="evenodd" d="M205.414 75.2644L203.848 60.0146H200.716L199.15 75.2644H205.414ZM204.08 74.0522L202.763 61.2268H201.802L200.485 74.0522H204.08Z" fill="#F5F5F5"/>
<path fill-rule="evenodd" clip-rule="evenodd" d="M186.285 52.6059L200.086 58.855L201.652 56.1035L189.417 47.1035L186.285 52.6059ZM187.99 52.0478L199.585 57.2981L200.072 56.4417L189.793 48.8799L187.99 52.0478Z" fill="#F5F5F5"/>
<path fill-rule="evenodd" clip-rule="evenodd" d="M189.443 69.647L201.678 60.647L200.112 57.8955L186.311 64.1446L189.443 69.647ZM189.819 67.8707L200.098 60.3088L199.61 59.4525L188.016 64.7028L189.819 67.8707Z" fill="#F5F5F5"/>
<path fill-rule="evenodd" clip-rule="evenodd" d="M218.433 63.8272L204.632 57.5781L203.066 60.3296L215.301 69.3296L218.433 63.8272ZM216.728 64.3854L205.133 59.1351L204.646 59.9915L214.925 67.5533L216.728 64.3854Z" fill="#F5F5F5"/>
<path fill-rule="evenodd" clip-rule="evenodd" d="M215.301 47.3076L203.066 56.3076L204.632 59.0591L218.433 52.81L215.301 47.3076ZM214.925 49.084L204.646 56.6458L205.133 57.5022L216.728 52.2519L214.925 49.084Z" fill="#F5F5F5"/>
<path fill-rule="evenodd" clip-rule="evenodd" d="M202.283 74.9763C211.286 74.9763 218.592 67.5709 218.592 58.4266C218.592 49.2824 211.286 41.8775 202.283 41.8775C193.279 41.8775 185.973 49.2824 185.973 58.4266C185.973 67.5709 193.279 74.9763 202.283 74.9763ZM202.283 75.5824C211.622 75.5824 219.193 67.9012 219.193 58.4266C219.193 48.9521 211.622 41.2715 202.283 41.2715C192.942 41.2715 185.371 48.9521 185.371 58.4266C185.371 67.9012 192.942 75.5824 202.283 75.5824Z" fill="#F5F5F5"/>
<path fill-rule="evenodd" clip-rule="evenodd" d="M202.283 75.2928C211.459 75.2928 218.905 67.7449 218.905 58.4255C218.905 49.1061 211.459 41.5582 202.283 41.5582C193.107 41.5582 185.66 49.1061 185.66 58.4255C185.66 67.7449 193.107 75.2928 202.283 75.2928ZM202.283 75.8988C211.795 75.8988 219.507 68.0758 219.507 58.4255C219.507 48.7752 211.795 40.9521 202.283 40.9521C192.77 40.9521 185.059 48.7752 185.059 58.4255C185.059 68.0758 192.77 75.8988 202.283 75.8988Z" fill="#C4C4C4"/>
<path fill-rule="evenodd" clip-rule="evenodd" d="M202.282 75.6105C211.631 75.6105 219.218 67.9208 219.218 58.4257C219.218 48.9305 211.631 41.2408 202.282 41.2408C192.933 41.2408 185.346 48.9305 185.346 58.4257C185.346 67.9208 192.933 75.6105 202.282 75.6105ZM202.282 76.2166C211.968 76.2166 219.819 68.2511 219.819 58.4257C219.819 48.6002 211.968 40.6348 202.282 40.6348C192.596 40.6348 184.744 48.6002 184.744 58.4257C184.744 68.2511 192.596 76.2166 202.282 76.2166Z" fill="#F5F5F5"/>
<path d="M62.2701 58.4288C62.2701 70.0088 53.0161 79.3967 41.6008 79.3967C30.1855 79.3967 20.9316 70.0088 20.9316 58.4288C20.9316 46.8488 30.1855 37.4609 41.6008 37.4609C53.0161 37.4609 62.2701 46.8488 62.2701 58.4288Z" fill="#C4C4C4"/>
<path fill-rule="evenodd" clip-rule="evenodd" d="M41.6014 57.2891L40.6353 57.8552V59.0019L41.6014 59.5679L42.5673 59.0019V57.8552L41.6014 57.2891ZM43.7711 57.1576L41.6014 55.8867L39.4316 57.1576V59.6994L41.6014 60.9697L43.7711 59.6994V57.1576Z" fill="#F5F5F5"/>
<path fill-rule="evenodd" clip-rule="evenodd" d="M38.4688 41.5908L40.0346 56.8399H43.1663L44.7322 41.5908H38.4688ZM39.8034 42.8029L41.1203 55.6278H42.0806L43.3976 42.8029H39.8034Z" fill="#F5F5F5"/>
<path fill-rule="evenodd" clip-rule="evenodd" d="M44.7322 75.2657L43.1663 60.0166H40.0346L38.4688 75.2657H44.7322ZM43.3976 74.0536L42.0806 61.2287H41.1203L39.8034 74.0536H43.3976Z" fill="#F5F5F5"/>
<path fill-rule="evenodd" clip-rule="evenodd" d="M25.6035 52.6085L39.4046 58.8576L40.9705 56.1061L28.7352 47.1055L25.6035 52.6085ZM27.3084 52.0503L38.9034 57.3006L39.3908 56.4443L29.1113 48.8824L27.3084 52.0503Z" fill="#F5F5F5"/>
<path fill-rule="evenodd" clip-rule="evenodd" d="M28.7606 69.649L40.9959 60.649L39.43 57.8975L25.6289 64.1465L28.7606 69.649ZM29.1367 67.8726L39.4161 60.3108L38.9288 59.4544L27.3338 64.7047L29.1367 67.8726Z" fill="#F5F5F5"/>
<path fill-rule="evenodd" clip-rule="evenodd" d="M57.7498 63.8292L43.9487 57.5801L42.3828 60.3316L54.6181 69.3316L57.7498 63.8292ZM56.0449 64.3867L44.45 59.137L43.9626 59.9934L54.2419 67.5552L56.0449 64.3867Z" fill="#F5F5F5"/>
<path fill-rule="evenodd" clip-rule="evenodd" d="M54.6181 47.3096L42.3828 56.3096L43.9487 59.0611L57.7498 52.812L54.6181 47.3096ZM54.242 49.0859L43.9626 56.6477L44.4499 57.5041L56.0449 52.2538L54.242 49.0859Z" fill="#F5F5F5"/>
<path fill-rule="evenodd" clip-rule="evenodd" d="M41.6006 74.9777C50.6038 74.9777 57.9099 67.5728 57.9099 58.4286C57.9099 49.2843 50.6038 41.8795 41.6006 41.8795C32.5974 41.8795 25.2913 49.2843 25.2913 58.4286C25.2913 67.5728 32.5974 74.9777 41.6006 74.9777ZM41.6006 75.5837C50.9404 75.5837 58.5117 67.9031 58.5117 58.4286C58.5117 48.954 50.9404 41.2734 41.6006 41.2734C32.2608 41.2734 24.6895 48.954 24.6895 58.4286C24.6895 67.9031 32.2608 75.5837 41.6006 75.5837Z" fill="#F5F5F5"/>
<path fill-rule="evenodd" clip-rule="evenodd" d="M41.6012 75.2951C50.7774 75.2951 58.2237 67.7478 58.2237 58.4284C58.2237 49.1084 50.7774 41.5611 41.6012 41.5611C32.4251 41.5611 24.9788 49.1084 24.9788 58.4284C24.9788 67.7478 32.4251 75.2951 41.6012 75.2951ZM41.6012 75.9011C51.114 75.9011 58.8256 68.0787 58.8256 58.4284C58.8256 48.7781 51.114 40.9551 41.6012 40.9551C32.0885 40.9551 24.377 48.7781 24.377 58.4284C24.377 68.0787 32.0885 75.9011 41.6012 75.9011Z" fill="#C4C4C4"/>
<path fill-rule="evenodd" clip-rule="evenodd" d="M41.6 75.6134C50.9491 75.6134 58.5356 67.9238 58.5356 58.4286C58.5356 48.9334 50.9491 41.2438 41.6 41.2438C32.2509 41.2438 24.6644 48.9334 24.6644 58.4286C24.6644 67.9238 32.2509 75.6134 41.6 75.6134ZM41.6 76.2195C51.2857 76.2195 59.1375 68.2541 59.1375 58.4286C59.1375 48.6031 51.2857 40.6377 41.6 40.6377C31.9143 40.6377 24.0625 48.6031 24.0625 58.4286C24.0625 68.2541 31.9143 76.2195 41.6 76.2195Z" fill="#F5F5F5"/>
</svg>
