<svg width="16" height="16" viewBox="0 0 16 16" fill="none" xmlns="http://www.w3.org/2000/svg">
<path d="M15.45 4.49697L14.3241 3.3584L13.9359 3.74435L14.6541 4.45837C14.7192 4.52863 14.7247 4.57065 14.6541 4.65135L11.2959 7.98987C11.3028 8.37814 11.3862 8.49511 11.7618 8.41443L15.45 4.70925C15.5066 4.62445 15.5135 4.57799 15.45 4.49697Z" fill="#CA9203"/>
<path fill-rule="evenodd" clip-rule="evenodd" d="M14.3158 3.28613L15.4457 4.44519L15.4463 4.44607C15.4789 4.48817 15.4961 4.52463 15.495 4.56377C15.494 4.60214 15.4755 4.63908 15.4472 4.68206L15.4462 4.68364L11.7865 8.41296L11.7809 8.41417C11.5949 8.45473 11.4714 8.44827 11.3955 8.37239C11.358 8.3348 11.3341 8.28209 11.3192 8.21551C11.3042 8.14894 11.2978 8.06687 11.296 7.96886L11.2959 7.96063L14.6285 4.59992C14.6626 4.56028 14.6743 4.5344 14.6738 4.5127C14.6733 4.49091 14.6604 4.46741 14.6287 4.43263L13.9038 3.70158L14.3158 3.28613ZM13.9582 3.70158L14.6565 4.40577L14.6568 4.40607C14.6893 4.44174 14.7114 4.47459 14.7122 4.51179C14.7131 4.54903 14.6926 4.5847 14.6571 4.62588L14.6567 4.62639L11.3347 7.9764C11.3366 8.06976 11.343 8.14602 11.3567 8.20694C11.3708 8.26961 11.3922 8.3144 11.4226 8.34484C11.4822 8.40442 11.5847 8.41656 11.7672 8.37746L15.4162 4.65905C15.4432 4.61766 15.4559 4.58903 15.4566 4.56273C15.4573 4.53705 15.4466 4.50966 15.4167 4.47079L14.3155 3.34123L13.9582 3.70158Z" fill="#CA9203"/>
<path d="M12.2793 2.05957L13.9431 3.7272L4.51562 13.1784L2.85179 11.5108L12.2793 2.05957Z" fill="#CA9203"/>
<path d="M2.52539 11.8008L4.18922 13.4684L0.888203 15.2221L2.52539 11.8008Z" fill="#CA9203"/>
<path d="M14.0655 0.273666C14.2159 0.122524 14.4599 0.122511 14.6103 0.273635L15.7275 1.39579C15.878 1.54691 15.878 1.79195 15.7275 1.94309L14.3141 3.36308L12.6521 1.69366L14.0655 0.273666Z" fill="#CA9203"/>
</svg>
