<svg width="17" height="16" viewBox="0 0 17 16" fill="none" xmlns="http://www.w3.org/2000/svg">
<path fill-rule="evenodd" clip-rule="evenodd" d="M8.64298 16C13.0611 16 16.6428 12.4183 16.6428 8C16.6428 3.58172 13.0611 0 8.64298 0C6.03658 0 3.72131 1.24648 2.26074 3.1759L3.08337 4.82777C4.18592 2.89949 6.2627 1.6 8.64298 1.6C12.1775 1.6 15.0428 4.46539 15.0428 8C15.0428 11.5346 12.1775 14.4 8.64298 14.4C6.92467 14.4 5.36452 13.7228 4.21487 12.6207C3.88941 12.4008 3.44342 12.4488 3.17321 12.7491C2.87765 13.0775 2.90428 13.5833 3.23269 13.8789L3.2392 13.8847C3.2429 13.888 3.24662 13.8912 3.25036 13.8943L3.24301 13.9025C4.66606 15.2052 6.5617 16 8.64298 16Z" fill="#015FB6"/>
<path d="M1.76257 5.25133C1.64355 5.2883 1.52973 5.18122 1.55936 5.06016L2.54648 1.02769C2.57567 0.908463 2.72257 0.864959 2.81197 0.949068L5.7896 3.75027C5.87901 3.83438 5.84454 3.98366 5.72731 4.02006L1.76257 5.25133Z" fill="#015FB6"/>
<path d="M8.57751 11.2804C7.82616 11.2467 7.10226 11.0817 6.4058 10.7854V9.10869C6.80378 9.30734 7.23606 9.47401 7.70265 9.60869C8.16924 9.74 8.57923 9.80565 8.9326 9.80565C9.22422 9.80565 9.43694 9.77198 9.57074 9.70464C9.70797 9.63394 9.77659 9.51778 9.77659 9.35616C9.77659 9.24505 9.72684 9.15078 9.62735 9.07334C9.53128 8.99589 9.36832 8.90835 9.13845 8.81071C8.91202 8.71307 8.60496 8.59522 8.21728 8.45718C7.78156 8.29893 7.4299 8.12216 7.1623 7.92688C6.89469 7.72823 6.69914 7.50769 6.57563 7.26527C6.45555 7.01948 6.39551 6.71477 6.39551 6.35113C6.39551 5.79558 6.57734 5.36124 6.94101 5.04811C7.30468 4.73498 7.85018 4.54138 8.57751 4.46731V3.77539H9.64278V4.4572C10.3255 4.49424 11.0134 4.65922 11.7064 4.95215L11.094 6.39154C10.377 6.07504 9.73027 5.91679 9.15389 5.91679C8.87943 5.91679 8.68558 5.95046 8.57237 6.0178C8.46258 6.08177 8.40769 6.17773 8.40769 6.30568C8.40769 6.41679 8.44714 6.50938 8.52605 6.58345C8.60839 6.65416 8.74905 6.73497 8.94804 6.82588C9.14703 6.91342 9.42321 7.01611 9.77659 7.13395C10.4936 7.38311 11.0083 7.66762 11.3205 7.98748C11.6327 8.30398 11.7888 8.71307 11.7888 9.21475C11.7888 9.7804 11.6052 10.24 11.2381 10.5935C10.8745 10.9471 10.3427 11.1659 9.64278 11.2501V12.2248H8.57751V11.2804Z" fill="#015FB6"/>
</svg>
