<?xml version="1.0" encoding="utf-8"?>
<!-- Generator: Adobe Illustrator 22.0.1, SVG Export Plug-In . SVG Version: 6.00 Build 0)  -->
<svg version="1.1" id="Слой_1" xmlns="http://www.w3.org/2000/svg" xmlns:xlink="http://www.w3.org/1999/xlink" x="0px" y="0px"
	 width="30px" height="30px" viewBox="0 0 30 30" style="enable-background:new 0 0 30 30;" xml:space="preserve">
<style type="text/css">
	.st0{fill:url(#SVGID_1_);}
	.st1{fill:#FFFFFF;}
</style>
<g>
	
		<linearGradient id="SVGID_1_" gradientUnits="userSpaceOnUse" x1="6.122" y1="32.0976" x2="24.122" y2="9.5976" gradientTransform="matrix(1 0 0 -1 0 36)">
		<stop  offset="0" style="stop-color:#B9D800"/>
		<stop  offset="1" style="stop-color:#9AB400"/>
	</linearGradient>
	<circle class="st0" cx="15" cy="15" r="15"/>
	<path class="st1" d="M18.2,17.3c0,0.9-0.3,1.6-1,2.1c-0.6,0.5-1.5,0.7-2.6,0.7c-1.2,0-2.1-0.2-2.7-0.5v-1.1
		c0.4,0.2,0.9,0.3,1.3,0.4c0.5,0.1,1,0.2,1.4,0.2c0.8,0,1.4-0.1,1.8-0.4c0.4-0.3,0.6-0.7,0.6-1.2c0-0.3-0.1-0.6-0.2-0.8
		c-0.1-0.2-0.4-0.4-0.7-0.6c-0.3-0.2-0.8-0.4-1.5-0.6c-0.9-0.3-1.6-0.7-2-1.2c-0.4-0.5-0.6-1.1-0.6-1.8c0-0.8,0.3-1.4,0.9-1.8
		c0.6-0.5,1.3-0.7,2.3-0.7c1,0,1.9,0.2,2.7,0.5l-0.4,1c-0.8-0.3-1.6-0.5-2.4-0.5c-0.6,0-1.1,0.1-1.4,0.4c-0.3,0.3-0.5,0.6-0.5,1.1
		c0,0.3,0.1,0.6,0.2,0.9c0.1,0.2,0.3,0.4,0.6,0.6c0.3,0.2,0.8,0.4,1.4,0.6c1,0.4,1.8,0.8,2.2,1.2C18,16.1,18.2,16.7,18.2,17.3z"/>
	<path class="st1" d="M11.9,19.7h-1v0.6l0.6,0.3L11.9,19.7z M11.9,18.6l0.4-0.9L10.9,17v1.5H11.9z M16.4,18.7l0.6,0.8l0,0L16.4,18.7
		z M16.8,16.6l-0.9,0.5l0,0l0,0L16.8,16.6z M16.1,16l-0.5,0.9l0,0L16.1,16z M14.6,15.4l-0.3,0.9l0,0L14.6,15.4z M12.6,14.2l-0.8,0.7
		l0,0L12.6,14.2z M12.9,10.5l-0.6-0.8L12.9,10.5z M17.9,10.4l0.9,0.3l0.3-0.9l-0.9-0.4L17.9,10.4z M17.6,11.4l-0.4,0.9l1,0.4l0.4-1
		L17.6,11.4z M13.4,13.3l-0.9,0.5l0,0L13.4,13.3z M14,13.9l-0.5,0.8l0,0l0,0L14,13.9z M15.4,14.5l-0.3,0.9l0,0L15.4,14.5z
		 M17.6,15.7l-0.7,0.7l0,0L17.6,15.7z M17.2,17.3c0,0.6-0.2,1-0.6,1.3l1.2,1.6c0.9-0.7,1.3-1.7,1.3-2.8H17.2z M16.6,18.6
		c-0.4,0.3-1,0.5-2,0.5v2c1.2,0,2.3-0.3,3.2-0.9L16.6,18.6z M14.6,19.1c-1.1,0-1.9-0.1-2.3-0.4l-0.9,1.8c0.8,0.4,1.9,0.6,3.2,0.6
		V19.1z M12.9,19.7v-1.1h-2v1.1H12.9z M11.5,19.5c0.5,0.2,1,0.4,1.5,0.5l0.4-2c-0.4-0.1-0.8-0.2-1.2-0.4L11.5,19.5z M13,19.9
		c0.5,0.1,1.1,0.2,1.6,0.2v-2c-0.4,0-0.8,0-1.2-0.1L13,19.9z M14.7,20.1c0.9,0,1.7-0.2,2.3-0.6l-1.2-1.6c-0.1,0.1-0.5,0.2-1.2,0.2
		V20.1z M17,19.5c0.7-0.5,1-1.2,1-2h-2c0,0.2-0.1,0.3-0.2,0.4L17,19.5z M18,17.5c0-0.5-0.1-1-0.4-1.4l-1.7,1.1c0,0,0.1,0.1,0.1,0.3
		H18z M17.6,16.1c-0.3-0.4-0.6-0.7-1.1-1l-1,1.7c0.2,0.1,0.3,0.2,0.3,0.3L17.6,16.1z M16.6,15.1c-0.4-0.2-1-0.5-1.6-0.7l-0.7,1.9
		c0.6,0.2,1.1,0.4,1.3,0.6L16.6,15.1z M14.9,14.4c-0.9-0.3-1.3-0.6-1.6-0.9l-1.5,1.3c0.6,0.6,1.4,1.1,2.4,1.5L14.9,14.4z M13.4,13.5
		c-0.2-0.2-0.3-0.6-0.3-1.1h-2c0,0.9,0.3,1.8,0.8,2.4L13.4,13.5z M13,12.4c0-0.5,0.2-0.8,0.5-1.1l-1.2-1.6c-0.8,0.7-1.2,1.6-1.2,2.6
		H13z M13.5,11.3c0.4-0.3,0.9-0.5,1.7-0.5v-2c-1.1,0-2.1,0.3-2.9,0.9L13.5,11.3z M15.2,10.9c0.9,0,1.6,0.2,2.3,0.5l0.8-1.8
		c-1-0.4-2-0.6-3.1-0.6V10.9z M17,10.1l-0.4,1l1.9,0.7l0.4-1L17,10.1z M17.9,10.5c-0.9-0.4-1.9-0.6-2.8-0.6v2c0.6,0,1.3,0.1,2,0.4
		L17.9,10.5z M15.2,9.9c-0.7,0-1.5,0.2-2,0.6l1.2,1.6c0.1-0.1,0.4-0.2,0.8-0.2V9.9z M13.1,10.5c-0.6,0.5-0.9,1.1-0.9,1.9h2
		c0-0.2,0-0.2,0.1-0.3L13.1,10.5z M12.2,12.4c0,0.5,0.1,0.9,0.3,1.4l1.7-1c0,0-0.1-0.1-0.1-0.4H12.2z M12.5,13.8
		c0.2,0.4,0.6,0.7,1,1l1.1-1.7c-0.2-0.1-0.3-0.2-0.3-0.3L12.5,13.8z M13.5,14.7c0.4,0.2,0.9,0.5,1.6,0.7l0.7-1.9
		c-0.6-0.2-1-0.4-1.2-0.5L13.5,14.7z M15.1,15.4c1,0.4,1.5,0.7,1.8,0.9l1.5-1.4c-0.6-0.6-1.5-1.1-2.6-1.5L15.1,15.4z M16.8,16.4
		c0.2,0.2,0.3,0.5,0.3,1h2c0-0.9-0.3-1.7-0.9-2.3L16.8,16.4z"/>
</g>
</svg>
