<?xml version="1.0" encoding="utf-8"?>
<!-- Generator: Adobe Illustrator 22.0.1, SVG Export Plug-In . SVG Version: 6.00 Build 0)  -->
<svg version="1.1" id="Слой_1" xmlns="http://www.w3.org/2000/svg" xmlns:xlink="http://www.w3.org/1999/xlink" x="0px" y="0px"
	 width="30px" height="30px" viewBox="0 0 30 30" style="enable-background:new 0 0 30 30;" xml:space="preserve">
<style type="text/css">
	.st0{fill:url(#SVGID_1_);}
	.st1{fill:#FFFFFF;}
</style>
<g>
	
		<linearGradient id="SVGID_1_" gradientUnits="userSpaceOnUse" x1="5.8954" y1="29.8929" x2="27.3954" y2="8.8929" gradientTransform="matrix(1 0 0 -1 0 36)">
		<stop  offset="0" style="stop-color:#00D863"/>
		<stop  offset="1" style="stop-color:#00AF51"/>
	</linearGradient>
	<circle class="st0" cx="15" cy="15" r="15"/>
	<path class="st1" d="M13,16.3V21h-1.3V9.6h3.1c1.4,0,2.4,0.3,3.1,0.8c0.7,0.5,1,1.3,1,2.4c0,1.5-0.8,2.5-2.3,3.1l3.1,5.1h-1.6
		l-2.8-4.8H13z M13,15.1h1.8c0.9,0,1.6-0.2,2.1-0.6c0.4-0.4,0.7-0.9,0.7-1.7c0-0.8-0.2-1.3-0.7-1.6c-0.4-0.3-1.2-0.5-2.1-0.5H13
		V15.1z"/>
	<path class="st1" d="M13,16.3v-1h-1v1H13z M13,21v1h1v-1H13z M11.6,21h-1v1h1V21z M11.6,9.6v-1h-1v1H11.6z M17.9,10.4l-0.6,0.8l0,0
		L17.9,10.4z M16.6,15.9l-0.3-0.9l-1.2,0.4l0.6,1.1L16.6,15.9z M19.7,21v1h1.8l-0.9-1.5L19.7,21z M18.1,21l-0.9,0.5l0.3,0.5h0.6V21z
		 M15.3,16.3l0.9-0.5l-0.3-0.5h-0.6V16.3z M13,15.1h-1v1h1V15.1z M16.8,14.6l0.6,0.8l0,0L16.8,14.6z M16.8,11.2L16.2,12l0,0
		L16.8,11.2z M13,10.7v-1h-1v1H13z M12,16.3V21h2v-4.8H12z M13,20h-1.3v2H13V20z M12.6,21V9.6h-2V21H12.6z M11.6,10.6h3.1v-2h-3.1
		V10.6z M14.8,10.6c1.3,0,2.1,0.3,2.5,0.6l1.3-1.6c-0.9-0.7-2.2-1-3.7-1V10.6z M17.2,11.2c0.4,0.3,0.6,0.8,0.6,1.6h2
		c0-1.3-0.4-2.4-1.4-3.2L17.2,11.2z M17.9,12.8c0,0.6-0.1,1-0.4,1.3c-0.2,0.3-0.6,0.6-1.3,0.8l0.7,1.9c0.9-0.3,1.7-0.8,2.2-1.5
		c0.5-0.7,0.8-1.6,0.8-2.5H17.9z M15.7,16.4l3.1,5.1l1.7-1l-3.1-5.1L15.7,16.4z M19.7,20h-1.6v2h1.6V20z M19,20.5l-2.8-4.8l-1.7,1
		l2.8,4.8L19,20.5z M15.3,15.3H13v2h2.4V15.3z M13,16.1h1.8v-2H13V16.1z M14.8,16.1c1,0,2-0.2,2.7-0.8l-1.3-1.5
		c-0.2,0.1-0.6,0.3-1.4,0.3V16.1z M17.5,15.3c0.7-0.6,1-1.5,1-2.4h-2c0,0.5-0.2,0.8-0.3,0.9L17.5,15.3z M18.5,12.9
		c0-1-0.3-1.9-1.1-2.4L16.2,12c0.1,0.1,0.3,0.3,0.3,0.8H18.5z M17.4,10.4c-0.7-0.5-1.7-0.7-2.7-0.7v2c0.9,0,1.4,0.2,1.5,0.3
		L17.4,10.4z M14.7,9.7H13v2h1.7V9.7z M12,10.7v4.4h2v-4.4H12z"/>
</g>
</svg>
