<?xml version="1.0" encoding="utf-8"?>
<!-- Generator: Adobe Illustrator 22.0.1, SVG Export Plug-In . SVG Version: 6.00 Build 0)  -->
<svg version="1.1" id="Слой_1" xmlns="http://www.w3.org/2000/svg" xmlns:xlink="http://www.w3.org/1999/xlink" x="0px" y="0px"
	 width="30px" height="30px" viewBox="0 0 30 30" style="enable-background:new 0 0 30 30;" xml:space="preserve">
<style type="text/css">
	.st0{fill:url(#SVGID_1_);}
	.st1{clip-path:url(#SVGID_3_);}
	.st2{fill:#FFFFFF;}
</style>
<g>
	
		<linearGradient id="SVGID_1_" gradientUnits="userSpaceOnUse" x1="5.9735" y1="31.9782" x2="24.4735" y2="9.4782" gradientTransform="matrix(1 0 0 -1 0 36)">
		<stop  offset="0" style="stop-color:#E6CF06"/>
		<stop  offset="1" style="stop-color:#FFA903"/>
	</linearGradient>
	<circle class="st0" cx="15" cy="15" r="15"/>
	<g>
		<defs>
			<rect id="SVGID_2_" x="5" y="9" width="20" height="12"/>
		</defs>
		<clipPath id="SVGID_3_">
			<use xlink:href="#SVGID_2_"  style="overflow:visible;"/>
		</clipPath>
		<g class="st1">
			<path class="st2" d="M17.1,10h-3.2v1.6h3.2V10z"/>
			<path class="st2" d="M22.9,13.4h-2.1v5h2.1V13.4z"/>
			<path class="st2" d="M7.2,13.3c0-0.5,0.4-0.9,0.9-0.9h2.5v7H8.1c-0.5,0-0.9-0.4-0.9-0.9V13.3z"/>
			<path class="st2" d="M7.8,14.9H6.1v2h1.6V14.9z"/>
			<path class="st2" d="M18.8,9h-6.7c-0.3,0-0.6,0.3-0.6,0.6s0.3,0.6,0.6,0.6h6.7c0.3,0,0.6-0.3,0.6-0.6S19.2,9,18.8,9z"/>
			<path class="st2" d="M6.4,12.7c0-0.4-0.3-0.6-0.7-0.6c-0.4,0-0.7,0.3-0.7,0.6V19c0,0.4,0.3,0.6,0.7,0.6c0.4,0,0.7-0.3,0.7-0.6
				V12.7z"/>
			<path class="st2" d="M22.6,12.1h1.4c0.5,0,0.9,0.4,0.9,0.9v5.8c0,0.5-0.4,0.9-0.9,0.9h-1.4V12.1z"/>
			<path class="st2" d="M9.6,12c0-0.5,0.4-0.9,0.9-0.9h9c1,0,1.9,0.8,1.9,1.8l-0.1,5.7c0,0.2-0.1,0.5-0.3,0.6L19,21h-8.5
				c-0.5,0-0.9-0.4-0.9-0.9V12z M16.3,15.3l3.9-3.7L13,16.2l1.9,0.3l-4.3,3.9l8-4.4L16.3,15.3z"/>
		</g>
	</g>
</g>
</svg>
