<?xml version="1.0" encoding="utf-8"?>
<!-- Generator: Adobe Illustrator 22.0.1, SVG Export Plug-In . SVG Version: 6.00 Build 0)  -->
<svg version="1.1" id="Слой_1" xmlns="http://www.w3.org/2000/svg" xmlns:xlink="http://www.w3.org/1999/xlink" x="0px" y="0px"
	 width="30px" height="30px" viewBox="0 0 30 30" style="enable-background:new 0 0 30 30;" xml:space="preserve">
<style type="text/css">
	.st0{fill:url(#SVGID_1_);}
	.st1{clip-path:url(#SVGID_3_);}
	.st2{fill:#FFFFFF;}
	.st3{fill:none;stroke:#FFFFFF;stroke-width:0.5;}
	.st4{fill:none;stroke:#FFFFFF;}
</style>
<g>
	
		<linearGradient id="SVGID_1_" gradientUnits="userSpaceOnUse" x1="3.9751" y1="31.0226" x2="25.9751" y2="11.0226" gradientTransform="matrix(1 0 0 -1 0 36)">
		<stop  offset="0" style="stop-color:#43BBEF"/>
		<stop  offset="1" style="stop-color:#049EB3"/>
	</linearGradient>
	<circle class="st0" cx="15" cy="15" r="15"/>
	<g>
		<defs>
			<rect id="SVGID_2_" x="7" y="6" width="17" height="17"/>
		</defs>
		<clipPath id="SVGID_3_">
			<use xlink:href="#SVGID_2_"  style="overflow:visible;"/>
		</clipPath>
		<g class="st1">
			<path class="st2" d="M13,16.6c0.1-0.1,0.3-0.1,0.4,0c0.1,0.1,0.1,0.3,0,0.4l-5.8,6l-0.4-0.4L13,16.6z"/>
			<path class="st2" d="M21.2,10l-1.5-1.6c-0.4-0.4-1-0.4-1.3,0c-0.4,0.4-0.4,1,0,1.4l1.5,1.6c0.4,0.4,1,0.4,1.3,0
				C21.6,11,21.6,10.4,21.2,10z"/>
			<path class="st3" d="M12.3,15.7l1.7-1.8l2,2l-2,1.9L13,18.6l-0.4,0.9l-1.2,0.7l-0.5,1.1l-1.1,0.4l-0.5,1.1h-2v-2l1.2-0.7l0.4-0.9
				l1.2-0.7l0.5-1.1l1.2-0.7L12.3,15.7z"/>
			<path class="st4" d="M23.6,10.2l-3.8-3.8c-0.5-0.3-0.7-0.3-1.2,0c0,0-2.3,1.4-3.2,2.3c-0.9,0.9-2.1,2.8-2.1,2.8
				c-0.3,0.6-0.3,0.9,0,1.5l3.6,3.6c0.6,0.3,0.9,0.3,1.4-0.1c0,0,2.5-1.8,3.3-2.5c0.8-0.8,1.9-2.4,1.9-2.4
				C23.8,11,23.8,10.7,23.6,10.2z"/>
		</g>
	</g>
</g>
</svg>
