<?xml version="1.0" encoding="utf-8"?>
<!-- Generator: Adobe Illustrator 22.0.1, SVG Export Plug-In . SVG Version: 6.00 Build 0)  -->
<svg version="1.1" id="Слой_1" xmlns="http://www.w3.org/2000/svg" xmlns:xlink="http://www.w3.org/1999/xlink" x="0px" y="0px"
	 width="30px" height="30px" viewBox="0 0 30 30" style="enable-background:new 0 0 30 30;" xml:space="preserve">
<style type="text/css">
	.st0{fill:url(#SVGID_1_);}
	.st1{fill:none;stroke:#CFCFCF;}
	.st2{fill:none;stroke:#FFFFFF;}
	.st3{fill:none;stroke:#FFFFFF;stroke-width:0.5;}
	.st4{fill:none;stroke:#CFCFCF;stroke-width:0.5;}
</style>
<g>
	
		<linearGradient id="SVGID_1_" gradientUnits="userSpaceOnUse" x1="15" y1="34.5" x2="15" y2="7.5" gradientTransform="matrix(1 0 0 -1 0 36)">
		<stop  offset="0.4948" style="stop-color:#26D60B"/>
		<stop  offset="0.5157" style="stop-color:#888888"/>
	</linearGradient>
	<circle class="st0" cx="15" cy="15" r="15"/>
	<line class="st1" x1="15" y1="8" x2="15" y2="15"/>
	<line class="st1" x1="15" y1="15" x2="15" y2="22"/>
	<line class="st1" x1="10.5" y1="21.5" x2="19.5" y2="21.5"/>
	<line class="st2" x1="10.5" y1="8.5" x2="19.5" y2="8.5"/>
	<path class="st3" d="M8.5,6.3h1c0.4,0,0.8,0.3,0.8,0.8v3c0,0.4-0.3,0.8-0.8,0.8h-1c-0.4,0-0.8-0.3-0.8-0.8V7
		C7.8,6.6,8.1,6.3,8.5,6.3z"/>
	<path class="st4" d="M8.5,19.3h1c0.4,0,0.8,0.3,0.8,0.8v3c0,0.4-0.3,0.8-0.8,0.8h-1c-0.4,0-0.8-0.3-0.8-0.8v-3
		C7.8,19.6,8.1,19.3,8.5,19.3z"/>
	<path class="st4" d="M20.5,19.3h1c0.4,0,0.8,0.3,0.8,0.8v3c0,0.4-0.3,0.8-0.8,0.8h-1c-0.4,0-0.8-0.3-0.8-0.8v-3
		C19.8,19.6,20.1,19.3,20.5,19.3z"/>
	<path class="st3" d="M20.5,6.3h1c0.4,0,0.8,0.3,0.8,0.8v3c0,0.4-0.3,0.8-0.8,0.8h-1c-0.4,0-0.8-0.3-0.8-0.8V7
		C19.8,6.6,20.1,6.3,20.5,6.3z"/>
	<line class="st3" x1="7.6" y1="6.8" x2="10.2" y2="7.9"/>
	<line class="st3" x1="7.6" y1="7.8" x2="10.2" y2="8.9"/>
	<line class="st3" x1="7.6" y1="8.8" x2="10.2" y2="9.9"/>
	<line class="st3" x1="19.6" y1="6.8" x2="22.2" y2="7.9"/>
	<line class="st3" x1="19.6" y1="7.8" x2="22.2" y2="8.9"/>
	<line class="st3" x1="19.6" y1="8.8" x2="22.2" y2="9.9"/>
</g>
</svg>
