<?xml version="1.0" encoding="utf-8"?>
<!-- Generator: Adobe Illustrator 22.0.1, SVG Export Plug-In . SVG Version: 6.00 Build 0)  -->
<svg version="1.1" id="Слой_1" xmlns="http://www.w3.org/2000/svg" xmlns:xlink="http://www.w3.org/1999/xlink" x="0px" y="0px"
	 width="30px" height="30px" viewBox="0 0 30 30" style="enable-background:new 0 0 30 30;" xml:space="preserve">
<style type="text/css">
	.st0{fill:url(#SVGID_1_);}
	.st1{fill:#FFFFFF;}
</style>
<g>
	
		<linearGradient id="SVGID_1_" gradientUnits="userSpaceOnUse" x1="5.6343" y1="30.6059" x2="25.1343" y2="10.6059" gradientTransform="matrix(1 0 0 -1 0 36)">
		<stop  offset="0" style="stop-color:#D85B00"/>
		<stop  offset="1" style="stop-color:#B84D00"/>
	</linearGradient>
	<circle class="st0" cx="15" cy="15" r="15"/>
	<path class="st1" d="M18.6,20h-1.1l-2-6.7c-0.1-0.3-0.2-0.7-0.3-1.1c-0.1-0.5-0.2-0.7-0.2-0.8c-0.1,0.6-0.3,1.3-0.5,2l-2,6.7h-1.1
		L8.7,10h1.2l1.6,6.2c0.2,0.9,0.4,1.6,0.5,2.4c0.1-0.8,0.3-1.6,0.5-2.4l1.8-6.1h1.2l1.9,6.1c0.2,0.7,0.4,1.5,0.6,2.4
		c0.1-0.6,0.3-1.4,0.5-2.4l1.6-6.2h1.2L18.6,20z"/>
	<path class="st1" d="M18.6,20v1h0.8l0.2-0.7L18.6,20z M17.5,20l-1,0.3l0.2,0.7h0.7V20z M15.5,13.3l1-0.3l0,0l0,0L15.5,13.3z
		 M14.9,11.4l1,0l-2-0.1L14.9,11.4z M14.5,13.3l-1-0.3l0,0L14.5,13.3z M12.5,20v1h0.7l0.2-0.7L12.5,20z M11.4,20l-1,0.3l0.2,0.7h0.8
		V20z M8.7,10V9H7.4l0.3,1.3L8.7,10z M9.9,10l1-0.2L10.7,9H9.9V10z M11.5,16.2l1-0.2l0,0L11.5,16.2z M12,18.5l-1,0.1l2,0L12,18.5z
		 M12.5,16.1l1,0.3l0,0L12.5,16.1z M14.3,10V9h-0.7l-0.2,0.7L14.3,10z M15.6,10l1-0.3L16.3,9h-0.7V10z M17.4,16.1l-1,0.3l0,0
		L17.4,16.1z M18,18.5l-1,0.2l2,0L18,18.5z M18.5,16.2l1,0.3l0,0L18.5,16.2z M20.1,10V9h-0.8l-0.2,0.8L20.1,10z M21.3,10l1,0.3
		L22.6,9h-1.3V10z M18.6,19h-1.1v2h1.1V19z M18.4,19.7l-2-6.7l-1.9,0.6l2,6.7L18.4,19.7z M16.4,13c-0.1-0.3-0.2-0.6-0.3-1.1
		l-1.9,0.5c0.1,0.5,0.2,0.9,0.3,1.2L16.4,13z M16.1,11.9C16,11.7,16,11.5,16,11.4c0-0.1,0-0.1,0-0.1c0,0,0,0,0,0l-2,0.1
		c0,0.1,0,0.3,0.1,0.4c0,0.2,0.1,0.3,0.1,0.6L16.1,11.9z M14,11.2c-0.1,0.5-0.2,1.2-0.4,1.8l1.9,0.6c0.2-0.7,0.4-1.5,0.5-2.1
		L14,11.2z M13.5,13.1l-2,6.7l1.9,0.6l2-6.7L13.5,13.1z M12.5,19h-1.1v2h1.1V19z M12.3,19.7l-2.7-10l-1.9,0.5l2.7,10L12.3,19.7z
		 M8.7,11h1.2V9H8.7V11z M9,10.3l1.6,6.2l1.9-0.5l-1.6-6.2L9,10.3z M10.5,16.4c0.2,0.8,0.4,1.6,0.5,2.2l2-0.3
		c-0.1-0.7-0.3-1.6-0.5-2.5L10.5,16.4z M13,18.7c0.1-0.8,0.3-1.6,0.5-2.3l-1.9-0.6c-0.3,0.8-0.4,1.7-0.6,2.6L13,18.7z M13.5,16.4
		l1.8-6.1l-1.9-0.6l-1.8,6.1L13.5,16.4z M14.3,11h1.2V9h-1.2V11z M14.6,10.3l1.9,6.1l1.9-0.6l-1.9-6.1L14.6,10.3z M16.5,16.4
		c0.2,0.7,0.4,1.4,0.5,2.3l2-0.3c-0.2-0.9-0.4-1.8-0.6-2.5L16.5,16.4z M19,18.7c0.1-0.6,0.2-1.3,0.5-2.2l-1.9-0.5
		c-0.2,1-0.4,1.8-0.5,2.5L19,18.7z M19.5,16.4l1.6-6.2l-1.9-0.5l-1.6,6.2L19.5,16.4z M20.1,11h1.2V9h-1.2V11z M20.3,9.7l-2.7,10
		l1.9,0.5l2.7-10L20.3,9.7z"/>
</g>
</svg>
