<svg width="20" height="18" viewBox="0 0 20 18" fill="none" xmlns="http://www.w3.org/2000/svg">
<path fill-rule="evenodd" clip-rule="evenodd" d="M8.26484 7.36762C8.26484 9.77981 10.2203 11.7352 12.6324 11.7352C15.0446 11.7352 17 9.77981 17 7.36762C17 4.95543 15.0446 3 12.6324 3C10.2203 3 8.26484 4.95543 8.26484 7.36762ZM8.04457 13.1328C9.30329 14.1358 10.8979 14.7352 12.6324 14.7352C16.7014 14.7352 20 11.4366 20 7.36762C20 3.2986 16.7014 0 12.6324 0C8.56342 0 5.26484 3.2986 5.26484 7.36762C5.26484 8.68382 5.60998 9.91942 6.21469 10.9888L6.08048 10.8559L0.998247 15.8891L3.12984 18L8.04457 13.1328Z" fill="#025EAA"/>
</svg>
