<svg width="10" height="7" viewBox="0 0 10 7" fill="none" xmlns="http://www.w3.org/2000/svg">
<mask id="path-1-inside-1" fill="white">
<path fill-rule="evenodd" clip-rule="evenodd" d="M8.18164 7L5 2.5457L1.81836 7H0L5 0L10 7H8.18164Z"/>
</mask>
<path fill-rule="evenodd" clip-rule="evenodd" d="M8.18164 7L5 2.5457L1.81836 7H0L5 0L10 7H8.18164Z" fill="#025EAA"/>
<path d="M5 2.5457L5.40687 2.25508L5 1.68547L4.59313 2.25508L5 2.5457ZM8.18164 7L7.77477 7.29062L7.92433 7.5H8.18164V7ZM1.81836 7V7.5H2.07567L2.22523 7.29062L1.81836 7ZM0 7L-0.406867 6.70938L-0.971595 7.5H0L0 7ZM5 0L5.40687 -0.290619L5 -0.860232L4.59313 -0.290619L5 0ZM10 7V7.5H10.9716L10.4069 6.70938L10 7ZM4.59313 2.83632L7.77477 7.29062L8.58851 6.70938L5.40687 2.25508L4.59313 2.83632ZM2.22523 7.29062L5.40687 2.83632L4.59313 2.25508L1.41149 6.70938L2.22523 7.29062ZM1.81836 6.5H0L0 7.5H1.81836V6.5ZM0.406867 7.29062L5.40687 0.290619L4.59313 -0.290619L-0.406867 6.70938L0.406867 7.29062ZM4.59313 0.290619L9.59313 7.29062L10.4069 6.70938L5.40687 -0.290619L4.59313 0.290619ZM10 6.5H8.18164V7.5L10 7.5V6.5Z" fill="#025EAA" mask="url(#path-1-inside-1)"/>
</svg>
