<svg width="7" height="10" viewBox="0 0 7 10" fill="none" xmlns="http://www.w3.org/2000/svg">
<mask id="path-1-inside-1" fill="white">
<path fill-rule="evenodd" clip-rule="evenodd" d="M0 8.18164L4.4543 5L0 1.81836V0L7 5L0 10V8.18164Z"/>
</mask>
<path fill-rule="evenodd" clip-rule="evenodd" d="M0 8.18164L4.4543 5L0 1.81836V0L7 5L0 10V8.18164Z" fill="black"/>
<path d="M4.4543 5L4.74492 5.40687L5.31453 5L4.74492 4.59313L4.4543 5ZM0 8.18164L-0.290619 7.77477L-0.5 7.92433V8.18164H0ZM0 1.81836H-0.5V2.07567L-0.290619 2.22523L0 1.81836ZM0 0L0.290619 -0.406867L-0.5 -0.971595V0H0ZM7 5L7.29062 5.40687L7.86023 5L7.29062 4.59313L7 5ZM0 10H-0.5V10.9716L0.290619 10.4069L0 10ZM4.16368 4.59313L-0.290619 7.77477L0.290619 8.58851L4.74492 5.40687L4.16368 4.59313ZM-0.290619 2.22523L4.16368 5.40687L4.74492 4.59313L0.290619 1.41149L-0.290619 2.22523ZM0.5 1.81836V0H-0.5V1.81836H0.5ZM-0.290619 0.406867L6.70938 5.40687L7.29062 4.59313L0.290619 -0.406867L-0.290619 0.406867ZM6.70938 4.59313L-0.290619 9.59313L0.290619 10.4069L7.29062 5.40687L6.70938 4.59313ZM0.5 10V8.18164H-0.5V10H0.5Z" fill="black" mask="url(#path-1-inside-1)"/>
</svg>
