<svg width="101" height="101" viewBox="0 0 101 101" fill="none" xmlns="http://www.w3.org/2000/svg">
<rect width="101" height="101" rx="10" fill="#E1FB01"/>
<path d="M40.5938 37.4453H49.4805C53.5299 37.4453 56.4661 38.0247 58.2891 39.1836C60.125 40.3294 61.043 42.1589 61.043 44.6719C61.043 46.3776 60.6393 47.7773 59.832 48.8711C59.0378 49.9648 57.9766 50.6224 56.6484 50.8438V51.0391C58.4583 51.4427 59.7604 52.1979 60.5547 53.3047C61.362 54.4115 61.7656 55.8828 61.7656 57.7188C61.7656 60.3229 60.8216 62.3542 58.9336 63.8125C57.0586 65.2708 54.5065 66 51.2773 66H40.5938V37.4453ZM46.6484 48.7539H50.1641C51.8047 48.7539 52.9896 48.5 53.7188 47.9922C54.4609 47.4844 54.832 46.6445 54.832 45.4727C54.832 44.3789 54.4284 43.5977 53.6211 43.1289C52.8268 42.6471 51.5638 42.4062 49.832 42.4062H46.6484V48.7539ZM46.6484 53.5586V61H50.5938C52.2604 61 53.4909 60.681 54.2852 60.043C55.0794 59.4049 55.4766 58.4284 55.4766 57.1133C55.4766 54.7435 53.7839 53.5586 50.3984 53.5586H46.6484Z" fill="black"/>
</svg>
