<svg width="132" height="40" viewBox="0 0 132 40" fill="none" xmlns="http://www.w3.org/2000/svg">
<path d="M116.808 6.84712L128.396 6.34998L126.409 8.50426C126.034 9.21497 126.116 9.56387 126.409 10.1614C128.616 12.9496 129.589 14.6522 130.879 17.95C132.781 21.9655 131.819 26.7328 131.21 28.2243C130.601 29.7157 130.391 30.1765 131.21 31.7043L119.456 35.35L117.139 35.1843C120.117 28.2366 118.354 23.3683 113 19.7728V8.66998L116.808 6.84712Z" fill="#FF0000"/>
<path d="M1.02141 23.3166C10.01 15.0712 19.3707 12.3717 43 10.62V36.0132H33.7449C36.0786 30.363 36.0353 27.7757 34.0754 23.9762C31.6009 20.3127 27.9824 18.4585 24.1592 18.5348C20.336 18.611 16.7174 21.5191 15.0694 23.9762C13.4213 26.4332 13.1189 32.0177 15.7304 36.5079C9.79737 36.8202 6.55959 36.5442 1.02141 34.8589C-0.353006 34.1572 -0.327875 33.3494 1.02141 31.2313C1.68478 29.524 1.61837 28.4186 1.02141 26.2846C0.563393 25.1261 0.603683 24.4751 1.02141 23.3166Z" fill="#7E7E7E"/>
<path fill-rule="evenodd" clip-rule="evenodd" d="M85.7962 1.72094C96.7506 3.97421 102.871 5.64141 113 8.84169V19.7712C110.993 18.7151 109.481 18.428 106.697 18.4465C102.128 19.2106 100.397 20.4107 98.237 23.4145C95.7914 28.2615 96.03 31.0239 98.237 36H43V10.4977C51.8049 5.59223 57.0763 3.2975 66.7204 0.0649511C74.2212 -0.147242 78.4048 0.0999602 85.7962 1.72094ZM81.6493 10.4977L83.3081 3.37692C87.8302 3.77786 90.3267 4.23619 94.4218 5.52971C95.7074 6.50784 96.3752 7.11542 97.4076 8.34489C97.9317 8.94519 97.7637 9.06352 97.2417 9.17289C91.3412 9.82404 87.9447 10.1181 81.6493 10.4977ZM45.4882 11.4913C52.7645 7.10923 57.0668 4.96461 65.2275 1.72092C72.0587 1.99964 75.8463 2.26416 82.4787 3.04572L80.8199 10.4977C67.6489 11.3339 60.0087 11.3881 47.3628 11.4779C46.7501 11.4822 46.1256 11.4867 45.4882 11.4913Z" fill="#7E7E7E"/>
<path d="M35.0996 29.5C35.0996 35.299 30.3986 40 24.5996 40C18.8006 40 14.0996 35.299 14.0996 29.5C14.0996 23.701 18.8006 19 24.5996 19C30.3986 19 35.0996 23.701 35.0996 29.5Z" fill="#4B4B4B"/>
<path fill-rule="evenodd" clip-rule="evenodd" d="M24.5996 38.9839C29.8374 38.9839 34.0835 34.7378 34.0835 29.5C34.0835 24.2622 29.8374 20.0161 24.5996 20.0161C19.3618 20.0161 15.1157 24.2622 15.1157 29.5C15.1157 34.7378 19.3618 38.9839 24.5996 38.9839ZM24.5996 40C30.3986 40 35.0996 35.299 35.0996 29.5C35.0996 23.701 30.3986 19 24.5996 19C18.8006 19 14.0996 23.701 14.0996 29.5C14.0996 35.299 18.8006 40 24.5996 40Z" fill="#7E7E7E"/>
<path fill-rule="evenodd" clip-rule="evenodd" d="M24.6 37.6731C29.1138 37.6731 32.7731 34.0139 32.7731 29.5C32.7731 24.9861 29.1138 21.3269 24.6 21.3269C20.0861 21.3269 16.4269 24.9861 16.4269 29.5C16.4269 34.0139 20.0861 37.6731 24.6 37.6731ZM24.6 38C29.2944 38 33.1 34.1944 33.1 29.5C33.1 24.8056 29.2944 21 24.6 21C19.9056 21 16.1 24.8056 16.1 29.5C16.1 34.1944 19.9056 38 24.6 38Z" fill="#7E7E7E"/>
<path d="M25.2054 27.4401C25.1441 28.1866 24.0559 28.1867 23.9946 27.4401L23.6021 22.6602C23.5729 22.3047 23.8523 22 24.2075 22H24.9925C25.3477 22 25.6271 22.3047 25.5979 22.6602L25.2054 27.4401Z" fill="#C4C4C4"/>
<path d="M23.9946 31.5599C24.0559 30.8134 25.1441 30.8133 25.2054 31.5599L25.5979 36.3398C25.6271 36.6953 25.3477 37 24.9925 37H24.2075C23.8523 37 23.5729 36.6953 23.6021 36.3398L23.9946 31.5599Z" fill="#C4C4C4"/>
<path d="M26.5599 30.1054C25.8134 30.0441 25.8133 28.9559 26.5599 28.8946L31.3398 28.5021C31.6953 28.4729 32 28.7523 32 29.1075V29.8925C32 30.2477 31.6953 30.5271 31.3398 30.4979L26.5599 30.1054Z" fill="#C4C4C4"/>
<path d="M22.6333 28.8786C23.3803 28.9346 23.3881 30.0227 22.6419 30.0893L17.865 30.5158C17.5097 30.5475 17.203 30.2703 17.2005 29.9151L17.1949 29.1301C17.1924 28.775 17.4951 28.4934 17.8508 28.5201L22.6333 28.8786Z" fill="#C4C4C4"/>
<path d="M25.7746 31.5169C25.29 30.9457 26.0595 30.1762 26.6307 30.6608L30.2881 33.7631C30.5601 33.9938 30.5781 34.4069 30.3269 34.658L29.7718 35.2131C29.5207 35.4643 29.1076 35.4464 28.8769 35.1743L25.7746 31.5169Z" fill="#C4C4C4"/>
<path d="M26.6041 28.288C26.0328 28.7726 25.2634 28.0032 25.7479 27.4319L28.8502 23.7745C29.081 23.5025 29.494 23.4846 29.7452 23.7357L30.3003 24.2908C30.5514 24.542 30.5335 24.955 30.2615 25.1858L26.6041 28.288Z" fill="#C4C4C4"/>
<path d="M23.4549 27.5331C23.9395 28.1044 23.17 28.8738 22.5988 28.3893L18.9414 25.287C18.6693 25.0562 18.6514 24.6432 18.9026 24.392L19.4577 23.8369C19.7088 23.5858 20.1219 23.6037 20.3526 23.8757L23.4549 27.5331Z" fill="#C4C4C4"/>
<path d="M22.583 30.675C23.1543 30.1904 23.9238 30.9598 23.4392 31.5311L20.3369 35.1885C20.1062 35.4605 19.6931 35.4784 19.442 35.2273L18.8869 34.6722C18.6357 34.4211 18.6536 34.008 18.9257 33.7773L22.583 30.675Z" fill="#C4C4C4"/>
<path d="M24.4075 28.5471C24.5266 28.4843 24.6733 28.4843 24.7924 28.5471L25.4075 28.8714C25.5266 28.9341 25.6 29.0502 25.6 29.1757V29.8243C25.6 29.9498 25.5266 30.0659 25.4075 30.1286L24.7924 30.4529C24.6733 30.5157 24.5266 30.5157 24.4075 30.4529L23.7924 30.1286C23.6733 30.0659 23.6 29.9498 23.6 29.8243V29.1757C23.6 29.0502 23.6733 28.9341 23.7924 28.8714L24.4075 28.5471Z" fill="#7E7E7E"/>
<path d="M118 29.5C118 35.299 113.299 40 107.5 40C101.701 40 97 35.299 97 29.5C97 23.701 101.701 19 107.5 19C113.299 19 118 23.701 118 29.5Z" fill="#4B4B4B"/>
<path fill-rule="evenodd" clip-rule="evenodd" d="M107.5 38.9839C112.738 38.9839 116.984 34.7378 116.984 29.5C116.984 24.2622 112.738 20.0161 107.5 20.0161C102.262 20.0161 98.0161 24.2622 98.0161 29.5C98.0161 34.7378 102.262 38.9839 107.5 38.9839ZM107.5 40C113.299 40 118 35.299 118 29.5C118 23.701 113.299 19 107.5 19C101.701 19 97 23.701 97 29.5C97 35.299 101.701 40 107.5 40Z" fill="#7E7E7E"/>
<path fill-rule="evenodd" clip-rule="evenodd" d="M107.5 37.6731C112.014 37.6731 115.673 34.0139 115.673 29.5C115.673 24.9861 112.014 21.3269 107.5 21.3269C102.987 21.3269 99.3273 24.9861 99.3273 29.5C99.3273 34.0139 102.987 37.6731 107.5 37.6731ZM107.5 38C112.195 38 116 34.1944 116 29.5C116 24.8056 112.195 21 107.5 21C102.806 21 99.0004 24.8056 99.0004 29.5C99.0004 34.1944 102.806 38 107.5 38Z" fill="#7E7E7E"/>
<path d="M108.106 27.4401C108.044 28.1866 106.956 28.1867 106.895 27.4401L106.502 22.6602C106.473 22.3047 106.753 22 107.108 22H107.893C108.248 22 108.527 22.3047 108.498 22.6602L108.106 27.4401Z" fill="#C4C4C4"/>
<path d="M106.895 31.5599C106.956 30.8134 108.044 30.8133 108.106 31.5599L108.498 36.3398C108.527 36.6953 108.248 37 107.893 37H107.108C106.753 37 106.473 36.6953 106.502 36.3398L106.895 31.5599Z" fill="#C4C4C4"/>
<path d="M109.46 30.1054C108.714 30.0441 108.714 28.9559 109.46 28.8946L114.24 28.5021C114.596 28.4729 114.9 28.7523 114.9 29.1075V29.8925C114.9 30.2477 114.596 30.5271 114.24 30.4979L109.46 30.1054Z" fill="#C4C4C4"/>
<path d="M105.534 28.8786C106.281 28.9346 106.288 30.0227 105.542 30.0893L100.765 30.5158C100.41 30.5475 100.103 30.2703 100.101 29.9151L100.095 29.1301C100.093 28.775 100.396 28.4934 100.751 28.5201L105.534 28.8786Z" fill="#C4C4C4"/>
<path d="M108.675 31.5169C108.19 30.9457 108.96 30.1762 109.531 30.6608L113.189 33.7631C113.461 33.9938 113.478 34.4069 113.227 34.658L112.672 35.2131C112.421 35.4643 112.008 35.4464 111.777 35.1743L108.675 31.5169Z" fill="#C4C4C4"/>
<path d="M109.504 28.288C108.933 28.7726 108.164 28.0032 108.648 27.4319L111.751 23.7745C111.981 23.5025 112.394 23.4846 112.646 23.7357L113.201 24.2908C113.452 24.542 113.434 24.955 113.162 25.1858L109.504 28.288Z" fill="#C4C4C4"/>
<path d="M106.355 27.5331C106.84 28.1044 106.07 28.8738 105.499 28.3893L101.842 25.287C101.57 25.0562 101.552 24.6432 101.803 24.392L102.358 23.8369C102.609 23.5858 103.022 23.6037 103.253 23.8757L106.355 27.5331Z" fill="#C4C4C4"/>
<path d="M105.483 30.675C106.055 30.1904 106.824 30.9598 106.34 31.5311L103.237 35.1885C103.007 35.4605 102.594 35.4784 102.342 35.2273L101.787 34.6722C101.536 34.4211 101.554 34.008 101.826 33.7773L105.483 30.675Z" fill="#C4C4C4"/>
<path d="M107.308 28.5471C107.427 28.4843 107.574 28.4843 107.693 28.5471L108.308 28.8714C108.427 28.9341 108.5 29.0502 108.5 29.1757V29.8243C108.5 29.9498 108.427 30.0659 108.308 30.1286L107.693 30.4529C107.574 30.5157 107.427 30.5157 107.308 30.4529L106.693 30.1286C106.574 30.0659 106.5 29.9498 106.5 29.8243V29.1757C106.5 29.0502 106.574 28.9341 106.693 28.8714L107.308 28.5471Z" fill="#7E7E7E"/>
</svg>
