<svg width="19" height="19" viewBox="0 0 19 19" fill="none" xmlns="http://www.w3.org/2000/svg">
<circle cx="9.5" cy="9.5" r="9.5" fill="#125DCE"/>
<path d="M8.61719 11.1582V10.7246C8.61719 10.3496 8.69727 10.0234 8.85742 9.74609C9.01758 9.46875 9.31055 9.17383 9.73633 8.86133C10.1465 8.56836 10.416 8.33008 10.5449 8.14648C10.6777 7.96289 10.7441 7.75781 10.7441 7.53125C10.7441 7.27734 10.6504 7.08398 10.4629 6.95117C10.2754 6.81836 10.0137 6.75195 9.67773 6.75195C9.0918 6.75195 8.42383 6.94336 7.67383 7.32617L7.03516 6.04297C7.90625 5.55469 8.83008 5.31055 9.80664 5.31055C10.6113 5.31055 11.25 5.50391 11.7227 5.89062C12.1992 6.27734 12.4375 6.79297 12.4375 7.4375C12.4375 7.86719 12.3398 8.23828 12.1445 8.55078C11.9492 8.86328 11.5781 9.21484 11.0312 9.60547C10.6562 9.88281 10.418 10.0938 10.3164 10.2383C10.2188 10.3828 10.1699 10.5723 10.1699 10.8066V11.1582H8.61719ZM8.42969 13.1621C8.42969 12.834 8.51758 12.5859 8.69336 12.418C8.86914 12.25 9.125 12.166 9.46094 12.166C9.78516 12.166 10.0352 12.252 10.2109 12.4238C10.3906 12.5957 10.4805 12.8418 10.4805 13.1621C10.4805 13.4707 10.3906 13.7148 10.2109 13.8945C10.0312 14.0703 9.78125 14.1582 9.46094 14.1582C9.13281 14.1582 8.87891 14.0723 8.69922 13.9004C8.51953 13.7246 8.42969 13.4785 8.42969 13.1621Z" fill="white"/>
</svg>
