<svg width="38" height="38" viewBox="0 0 38 38" fill="none" xmlns="http://www.w3.org/2000/svg">
<g filter="url(#filter0_d)">
<circle cx="19" cy="15" r="14.5" fill="url(#paint0_linear)" stroke="black"/>
<path d="M16.8984 16.25V21H15.5703V9.57812H18.7031C20.1042 9.57812 21.138 9.84635 21.8047 10.3828C22.4766 10.9193 22.8125 11.7266 22.8125 12.8047C22.8125 14.3151 22.0469 15.3359 20.5156 15.8672L23.6172 21H22.0469L19.2812 16.25H16.8984ZM16.8984 15.1094H18.7188C19.6562 15.1094 20.3438 14.9245 20.7812 14.5547C21.2188 14.1797 21.4375 13.6198 21.4375 12.875C21.4375 12.1198 21.2135 11.5755 20.7656 11.2422C20.3229 10.9089 19.6094 10.7422 18.625 10.7422H16.8984V15.1094Z" fill="white"/>
<path d="M16.8984 16.25V15.25H15.8984V16.25H16.8984ZM16.8984 21V22H17.8984V21H16.8984ZM15.5703 21H14.5703V22H15.5703V21ZM15.5703 9.57812V8.57812H14.5703V9.57812H15.5703ZM21.8047 10.3828L21.1778 11.1619L21.1807 11.1643L21.8047 10.3828ZM20.5156 15.8672L20.1879 14.9224L19.021 15.3273L19.6597 16.3844L20.5156 15.8672ZM23.6172 21V22H25.3898L24.4731 20.4828L23.6172 21ZM22.0469 21L21.1827 21.5032L21.472 22H22.0469V21ZM19.2812 16.25L20.1454 15.7468L19.8562 15.25H19.2812V16.25ZM16.8984 15.1094H15.8984V16.1094H16.8984V15.1094ZM20.7812 14.5547L21.4268 15.3184L21.432 15.3139L20.7812 14.5547ZM20.7656 11.2422L20.1641 12.0411L20.1686 12.0444L20.7656 11.2422ZM16.8984 10.7422V9.74219H15.8984V10.7422H16.8984ZM15.8984 16.25V21H17.8984V16.25H15.8984ZM16.8984 20H15.5703V22H16.8984V20ZM16.5703 21V9.57812H14.5703V21H16.5703ZM15.5703 10.5781H18.7031V8.57812H15.5703V10.5781ZM18.7031 10.5781C20.0105 10.5781 20.7709 10.8345 21.1778 11.1619L22.4316 9.60373C21.5051 8.85817 20.1978 8.57812 18.7031 8.57812V10.5781ZM21.1807 11.1643C21.5559 11.4638 21.8125 11.9461 21.8125 12.8047H23.8125C23.8125 11.5071 23.3973 10.3747 22.4286 9.60135L21.1807 11.1643ZM21.8125 12.8047C21.8125 13.3846 21.6686 13.796 21.4383 14.1031C21.2036 14.416 20.816 14.7045 20.1879 14.9224L20.8434 16.8119C21.7465 16.4986 22.5073 16.0111 23.0383 15.3031C23.5736 14.5894 23.8125 13.7352 23.8125 12.8047H21.8125ZM19.6597 16.3844L22.7613 21.5172L24.4731 20.4828L21.3715 15.35L19.6597 16.3844ZM23.6172 20H22.0469V22H23.6172V20ZM22.9111 20.4968L20.1454 15.7468L18.4171 16.7532L21.1827 21.5032L22.9111 20.4968ZM19.2812 15.25H16.8984V17.25H19.2812V15.25ZM16.8984 16.1094H18.7188V14.1094H16.8984V16.1094ZM18.7188 16.1094C19.7525 16.1094 20.7248 15.9117 21.4268 15.3184L20.1357 13.791C19.9627 13.9372 19.56 14.1094 18.7188 14.1094V16.1094ZM21.432 15.3139C22.1523 14.6966 22.4375 13.8202 22.4375 12.875H20.4375C20.4375 13.4193 20.2852 13.6628 20.1305 13.7954L21.432 15.3139ZM22.4375 12.875C22.4375 11.9241 22.1473 11.0239 21.3626 10.44L20.1686 12.0444C20.2798 12.1272 20.4375 12.3155 20.4375 12.875H22.4375ZM21.3671 10.4433C20.6611 9.91171 19.6773 9.74219 18.625 9.74219V11.7422C19.5415 11.7422 19.9847 11.906 20.1641 12.0411L21.3671 10.4433ZM18.625 9.74219H16.8984V11.7422H18.625V9.74219ZM15.8984 10.7422V15.1094H17.8984V10.7422H15.8984Z" fill="white"/>
</g>
<defs>
<filter id="filter0_d" x="0" y="0" width="38" height="38" filterUnits="userSpaceOnUse" color-interpolation-filters="sRGB">
<feFlood flood-opacity="0" result="BackgroundImageFix"/>
<feColorMatrix in="SourceAlpha" type="matrix" values="0 0 0 0 0 0 0 0 0 0 0 0 0 0 0 0 0 0 127 0"/>
<feOffset dy="4"/>
<feGaussianBlur stdDeviation="2"/>
<feColorMatrix type="matrix" values="0 0 0 0 0 0 0 0 0 0 0 0 0 0 0 0 0 0 0.25 0"/>
<feBlend mode="normal" in2="BackgroundImageFix" result="effect1_dropShadow"/>
<feBlend mode="normal" in="SourceGraphic" in2="effect1_dropShadow" result="shape"/>
</filter>
<linearGradient id="paint0_linear" x1="10" y1="6" x2="31.5" y2="27" gradientUnits="userSpaceOnUse">
<stop stop-color="#00D863"/>
<stop offset="1" stop-color="#00AF51"/>
</linearGradient>
</defs>
</svg>
