<svg width="38" height="38" viewBox="0 0 38 38" fill="none" xmlns="http://www.w3.org/2000/svg">
<g filter="url(#filter0_d)">
<circle cx="19" cy="15" r="14.5" fill="url(#paint0_linear)" stroke="black"/>
<path d="M19.7891 11.4297C18.8776 11.4297 18.1719 11.7734 17.6719 12.4609C17.1719 13.1432 16.9219 14.0964 16.9219 15.3203C16.9219 17.8672 17.8776 19.1406 19.7891 19.1406C20.5911 19.1406 21.5625 18.9401 22.7031 18.5391V20.5703C21.7656 20.9609 20.7188 21.1562 19.5625 21.1562C17.901 21.1562 16.6302 20.6536 15.75 19.6484C14.8698 18.638 14.4297 17.1901 14.4297 15.3047C14.4297 14.1172 14.6458 13.0781 15.0781 12.1875C15.5104 11.2917 16.1302 10.6068 16.9375 10.1328C17.75 9.65365 18.7005 9.41406 19.7891 9.41406C20.8984 9.41406 22.013 9.68229 23.1328 10.2188L22.3516 12.1875C21.9245 11.9844 21.4948 11.8073 21.0625 11.6562C20.6302 11.5052 20.2057 11.4297 19.7891 11.4297Z" fill="white"/>
</g>
<defs>
<filter id="filter0_d" x="0" y="0" width="38" height="38" filterUnits="userSpaceOnUse" color-interpolation-filters="sRGB">
<feFlood flood-opacity="0" result="BackgroundImageFix"/>
<feColorMatrix in="SourceAlpha" type="matrix" values="0 0 0 0 0 0 0 0 0 0 0 0 0 0 0 0 0 0 127 0"/>
<feOffset dy="4"/>
<feGaussianBlur stdDeviation="2"/>
<feColorMatrix type="matrix" values="0 0 0 0 0 0 0 0 0 0 0 0 0 0 0 0 0 0 0.25 0"/>
<feBlend mode="normal" in2="BackgroundImageFix" result="effect1_dropShadow"/>
<feBlend mode="normal" in="SourceGraphic" in2="effect1_dropShadow" result="shape"/>
</filter>
<linearGradient id="paint0_linear" x1="7.5" y1="5.5" x2="29.5" y2="25.5" gradientUnits="userSpaceOnUse">
<stop stop-color="#0038FF"/>
<stop offset="1" stop-color="#0028B6"/>
</linearGradient>
</defs>
</svg>
