<svg width="38" height="38" viewBox="0 0 38 38" fill="none" xmlns="http://www.w3.org/2000/svg">
<g filter="url(#filter0_d)">
<circle cx="19" cy="15" r="14.5" fill="url(#paint0_linear)" stroke="black"/>
<g clip-path="url(#clip0)">
<path d="M21.0567 9.97778H17.8792V11.6222H21.0567V9.97778Z" fill="white"/>
<path d="M26.9432 13.3556H24.7937V18.3778H26.9432V13.3556Z" fill="white"/>
<path d="M11.1958 13.311C11.1958 12.8201 11.6142 12.4221 12.1304 12.4221H14.6537V19.3999H12.1304C11.6142 19.3999 11.1958 19.0019 11.1958 18.511V13.311Z" fill="white"/>
<path d="M11.7564 14.9111H10.1208V16.8667H11.7564V14.9111Z" fill="white"/>
<path d="M22.808 9H16.1257C15.7773 9 15.4949 9.26863 15.4949 9.6C15.4949 9.93137 15.7773 10.2 16.1257 10.2H22.808C23.1564 10.2 23.4388 9.93137 23.4388 9.6C23.4388 9.26863 23.1564 9 22.808 9Z" fill="white"/>
<path d="M10.3551 12.7112C10.3551 12.3553 10.0518 12.0668 9.67757 12.0668C9.30336 12.0668 9 12.3553 9 12.7112V19.0223C9 19.3782 9.30336 19.6668 9.67757 19.6668C10.0518 19.6668 10.3551 19.3782 10.3551 19.0223V12.7112Z" fill="white"/>
<path d="M26.6172 12.0668H28.0658C28.582 12.0668 29.0004 12.4647 29.0004 12.9557V18.7779C29.0004 19.2688 28.582 19.6668 28.0658 19.6668H26.6172V12.0668Z" fill="white"/>
<path fill-rule="evenodd" clip-rule="evenodd" d="M13.5127 11.0889C12.9965 11.0889 12.5781 11.4868 12.5781 11.9778V20.1111C12.5781 20.602 12.9965 21 13.5127 21H22.0174L24.0529 19.2382C24.2448 19.0721 24.3555 18.8376 24.3584 18.5908L24.426 12.8867C24.4377 11.8971 23.5975 11.0889 22.557 11.0889H13.5127ZM20.2334 19.3389C20.7152 19.1631 21.0879 18.9173 21.3516 18.6016V15.7646H18.5537V16.8438H19.8867V18.0693C19.6523 18.3037 19.2601 18.4209 18.71 18.4209C18.1631 18.4209 17.748 18.2305 17.4648 17.8496C17.1816 17.4688 17.04 16.9056 17.04 16.1602V15.7061C17.0433 14.9671 17.1751 14.4105 17.4355 14.0361C17.696 13.6618 18.0752 13.4746 18.5732 13.4746C18.9639 13.4746 19.2699 13.569 19.4912 13.7578C19.7158 13.9466 19.8607 14.2445 19.9258 14.6514H21.3516C21.2637 13.8831 20.9821 13.2988 20.5068 12.8984C20.0316 12.4948 19.3724 12.293 18.5293 12.293C17.9238 12.293 17.3949 12.4313 16.9424 12.708C16.4932 12.9814 16.1481 13.3786 15.9072 13.8994C15.6696 14.417 15.5508 15.0306 15.5508 15.7402V16.2236C15.5573 16.9137 15.6859 17.5143 15.9365 18.0254C16.1904 18.5365 16.5485 18.9271 17.0107 19.1973C17.4762 19.4642 18.0166 19.5977 18.6318 19.5977C19.2178 19.5977 19.7516 19.5114 20.2334 19.3389Z" fill="white"/>
</g>
</g>
<defs>
<filter id="filter0_d" x="0" y="0" width="38" height="38" filterUnits="userSpaceOnUse" color-interpolation-filters="sRGB">
<feFlood flood-opacity="0" result="BackgroundImageFix"/>
<feColorMatrix in="SourceAlpha" type="matrix" values="0 0 0 0 0 0 0 0 0 0 0 0 0 0 0 0 0 0 127 0"/>
<feOffset dy="4"/>
<feGaussianBlur stdDeviation="2"/>
<feColorMatrix type="matrix" values="0 0 0 0 0 0 0 0 0 0 0 0 0 0 0 0 0 0 0.25 0"/>
<feBlend mode="normal" in2="BackgroundImageFix" result="effect1_dropShadow"/>
<feBlend mode="normal" in="SourceGraphic" in2="effect1_dropShadow" result="shape"/>
</filter>
<linearGradient id="paint0_linear" x1="10" y1="4" x2="28.5" y2="26.5" gradientUnits="userSpaceOnUse">
<stop stop-color="#E6CF06"/>
<stop offset="1" stop-color="#FFA903"/>
</linearGradient>
<clipPath id="clip0">
<rect width="20" height="12" fill="white" transform="translate(9 9)"/>
</clipPath>
</defs>
</svg>
