<svg width="38" height="38" viewBox="0 0 38 38" fill="none" xmlns="http://www.w3.org/2000/svg">
<g filter="url(#filter0_d)">
<circle cx="19" cy="15" r="14.5" fill="url(#paint0_linear)" stroke="black"/>
<line x1="19" y1="8" x2="19" y2="15" stroke="white"/>
<line x1="19" y1="15" x2="19" y2="22" stroke="white"/>
<line x1="14.5" y1="21.5" x2="23.5" y2="21.5" stroke="white"/>
<line x1="14.5" y1="8.5" x2="23.5" y2="8.5" stroke="white"/>
<rect x="11.75" y="6.25" width="2.5" height="4.5" rx="0.75" stroke="white" stroke-width="0.5"/>
<rect x="11.75" y="19.25" width="2.5" height="4.5" rx="0.75" stroke="white" stroke-width="0.5"/>
<rect x="23.75" y="19.25" width="2.5" height="4.5" rx="0.75" stroke="white" stroke-width="0.5"/>
<rect x="23.75" y="6.25" width="2.5" height="4.5" rx="0.75" stroke="white" stroke-width="0.5"/>
<line x1="11.599" y1="6.77043" x2="14.1963" y2="7.89019" stroke="white" stroke-width="0.5"/>
<line x1="11.599" y1="7.77043" x2="14.1963" y2="8.89019" stroke="white" stroke-width="0.5"/>
<line x1="11.599" y1="8.77043" x2="14.1963" y2="9.89019" stroke="white" stroke-width="0.5"/>
<line x1="23.599" y1="6.77043" x2="26.1963" y2="7.89019" stroke="white" stroke-width="0.5"/>
<line x1="23.599" y1="7.77043" x2="26.1963" y2="8.89019" stroke="white" stroke-width="0.5"/>
<line x1="23.599" y1="8.77043" x2="26.1963" y2="9.89019" stroke="white" stroke-width="0.5"/>
<line x1="11.599" y1="19.7704" x2="14.1963" y2="20.8902" stroke="white" stroke-width="0.5"/>
<line x1="11.599" y1="20.7704" x2="14.1963" y2="21.8902" stroke="white" stroke-width="0.5"/>
<line x1="11.599" y1="21.7704" x2="14.1963" y2="22.8902" stroke="white" stroke-width="0.5"/>
<line x1="23.599" y1="19.7704" x2="26.1963" y2="20.8902" stroke="white" stroke-width="0.5"/>
<line x1="23.599" y1="20.7704" x2="26.1963" y2="21.8902" stroke="white" stroke-width="0.5"/>
<line x1="23.599" y1="21.7704" x2="26.1963" y2="22.8902" stroke="white" stroke-width="0.5"/>
</g>
<defs>
<filter id="filter0_d" x="0" y="0" width="38" height="38" filterUnits="userSpaceOnUse" color-interpolation-filters="sRGB">
<feFlood flood-opacity="0" result="BackgroundImageFix"/>
<feColorMatrix in="SourceAlpha" type="matrix" values="0 0 0 0 0 0 0 0 0 0 0 0 0 0 0 0 0 0 127 0"/>
<feOffset dy="4"/>
<feGaussianBlur stdDeviation="2"/>
<feColorMatrix type="matrix" values="0 0 0 0 0 0 0 0 0 0 0 0 0 0 0 0 0 0 0.25 0"/>
<feBlend mode="normal" in2="BackgroundImageFix" result="effect1_dropShadow"/>
<feBlend mode="normal" in="SourceGraphic" in2="effect1_dropShadow" result="shape"/>
</filter>
<linearGradient id="paint0_linear" x1="9.5" y1="4" x2="26" y2="27" gradientUnits="userSpaceOnUse">
<stop stop-color="#27FF05"/>
<stop offset="1" stop-color="#159401"/>
</linearGradient>
</defs>
</svg>
