<svg width="9" height="12" viewBox="0 0 9 12" fill="none" xmlns="http://www.w3.org/2000/svg">
<path d="M5.50293 2.62598C4.7054 2.62598 4.08789 2.92676 3.65039 3.52832C3.21289 4.12533 2.99414 4.95931 2.99414 6.03027C2.99414 8.25879 3.8304 9.37305 5.50293 9.37305C6.20475 9.37305 7.05469 9.19759 8.05273 8.84668V10.624C7.23242 10.9658 6.31641 11.1367 5.30469 11.1367C3.85091 11.1367 2.73893 10.6969 1.96875 9.81738C1.19857 8.93327 0.813477 7.66634 0.813477 6.0166C0.813477 4.97754 1.0026 4.06836 1.38086 3.28906C1.75911 2.50521 2.30143 1.90592 3.00781 1.49121C3.71875 1.07194 4.55046 0.862305 5.50293 0.862305C6.47363 0.862305 7.44889 1.09701 8.42871 1.56641L7.74512 3.28906C7.37142 3.11133 6.99544 2.95638 6.61719 2.82422C6.23893 2.69206 5.86751 2.62598 5.50293 2.62598Z" fill="#FCE801"/>
</svg>
