<svg width="231" height="45" viewBox="0 0 231 45" fill="none" xmlns="http://www.w3.org/2000/svg">
<path d="M47.1641 30L46.4961 27.458H42.0894L41.4028 30H37.3765L41.8018 16.3809H46.6909L51.1719 30H47.1641ZM45.7354 24.4521L45.1509 22.2256C45.0148 21.7308 44.8478 21.0907 44.6499 20.3052C44.4582 19.5197 44.3314 18.9569 44.2695 18.6167C44.2139 18.9321 44.1025 19.4517 43.9355 20.1753C43.7747 20.8989 43.4129 22.3245 42.8501 24.4521H45.7354ZM64.1787 16.4365V24.6006C64.1787 26.3757 63.6746 27.7518 62.6665 28.729C61.6646 29.7 60.2173 30.1855 58.3247 30.1855C56.4754 30.1855 55.0529 29.7124 54.0571 28.7661C53.0675 27.8198 52.5728 26.4591 52.5728 24.6841V16.4365H56.2559V24.3965C56.2559 25.3551 56.4352 26.0509 56.7939 26.4839C57.1527 26.9168 57.6815 27.1333 58.3804 27.1333C59.1287 27.1333 59.6699 26.9199 60.0039 26.4932C60.3441 26.0602 60.5142 25.3551 60.5142 24.3779V16.4365H64.1787ZM73.0107 30H69.3462V19.4331H66.0342V16.4365H76.3135V19.4331H73.0107V30ZM90.9438 23.1997C90.9438 25.4819 90.3841 27.2168 89.2646 28.4043C88.1452 29.5918 86.5062 30.1855 84.3477 30.1855C82.2201 30.1855 80.5872 29.5887 79.4492 28.395C78.3174 27.2013 77.7515 25.4634 77.7515 23.1812C77.7515 20.9237 78.3143 19.2012 79.4399 18.0137C80.5718 16.82 82.2139 16.2231 84.3662 16.2231C86.5247 16.2231 88.1606 16.8138 89.2739 17.9951C90.3872 19.1764 90.9438 20.9113 90.9438 23.1997ZM81.6108 23.1997C81.6108 25.8221 82.5231 27.1333 84.3477 27.1333C85.2754 27.1333 85.9619 26.8148 86.4072 26.1777C86.8587 25.5407 87.0845 24.548 87.0845 23.1997C87.0845 21.8452 86.8556 20.8464 86.3979 20.2031C85.9465 19.5537 85.2692 19.229 84.3662 19.229C82.5293 19.229 81.6108 20.5526 81.6108 23.1997ZM101.715 30L101.047 27.458H96.6401L95.9536 30H91.9272L96.3525 16.3809H101.242L105.723 30H101.715ZM100.286 24.4521L99.7017 22.2256C99.5656 21.7308 99.3986 21.0907 99.2007 20.3052C99.009 19.5197 98.8822 18.9569 98.8203 18.6167C98.7646 18.9321 98.6533 19.4517 98.4863 20.1753C98.3255 20.8989 97.9637 22.3245 97.4009 24.4521H100.286ZM118.729 16.4365V24.6006C118.729 26.3757 118.225 27.7518 117.217 28.729C116.215 29.7 114.768 30.1855 112.875 30.1855C111.026 30.1855 109.604 29.7124 108.608 28.7661C107.618 27.8198 107.124 26.4591 107.124 24.6841V16.4365H110.807V24.3965C110.807 25.3551 110.986 26.0509 111.345 26.4839C111.703 26.9168 112.232 27.1333 112.931 27.1333C113.68 27.1333 114.221 26.9199 114.555 26.4932C114.895 26.0602 115.065 25.3551 115.065 24.3779V16.4365H118.729ZM127.617 19.2476C126.745 19.2476 126.065 19.6063 125.576 20.3237C125.088 21.035 124.843 22.0184 124.843 23.2739C124.843 25.884 125.836 27.189 127.821 27.189C128.421 27.189 129.003 27.1055 129.565 26.9385C130.128 26.7715 130.694 26.5705 131.263 26.3354V29.4341C130.131 29.9351 128.851 30.1855 127.422 30.1855C125.375 30.1855 123.804 29.5918 122.709 28.4043C121.621 27.2168 121.077 25.5005 121.077 23.2554C121.077 21.8514 121.34 20.6175 121.865 19.5537C122.397 18.4899 123.158 17.6735 124.147 17.1045C125.143 16.5293 126.312 16.2417 127.654 16.2417C129.12 16.2417 130.521 16.5602 131.857 17.1973L130.734 20.0825C130.233 19.8475 129.732 19.6496 129.231 19.4888C128.73 19.328 128.192 19.2476 127.617 19.2476ZM139.9 30H136.236V19.4331H132.924V16.4365H143.203V19.4331H139.9V30ZM145.142 30V16.4365H148.825V30H145.142ZM164.458 23.1997C164.458 25.4819 163.898 27.2168 162.778 28.4043C161.659 29.5918 160.02 30.1855 157.861 30.1855C155.734 30.1855 154.101 29.5887 152.963 28.395C151.831 27.2013 151.265 25.4634 151.265 23.1812C151.265 20.9237 151.828 19.2012 152.954 18.0137C154.085 16.82 155.728 16.2231 157.88 16.2231C160.038 16.2231 161.674 16.8138 162.788 17.9951C163.901 19.1764 164.458 20.9113 164.458 23.1997ZM155.125 23.1997C155.125 25.8221 156.037 27.1333 157.861 27.1333C158.789 27.1333 159.476 26.8148 159.921 26.1777C160.372 25.5407 160.598 24.548 160.598 23.1997C160.598 21.8452 160.369 20.8464 159.912 20.2031C159.46 19.5537 158.783 19.229 157.88 19.229C156.043 19.229 155.125 20.5526 155.125 23.1997ZM179.821 30H175.015L170.061 20.4443H169.978C170.095 21.9473 170.154 23.0946 170.154 23.8862V30H166.907V16.4365H171.694L176.629 25.8623H176.685C176.598 24.4954 176.555 23.3976 176.555 22.5688V16.4365H179.821V30ZM191.622 25.8809C191.622 26.722 191.408 27.4704 190.981 28.126C190.555 28.7754 189.939 29.2826 189.135 29.6475C188.331 30.0062 187.388 30.1855 186.306 30.1855C185.403 30.1855 184.645 30.1237 184.033 30C183.42 29.8701 182.783 29.6475 182.122 29.332V26.0664C182.82 26.4251 183.547 26.7065 184.302 26.9106C185.056 27.1086 185.749 27.2075 186.38 27.2075C186.924 27.2075 187.323 27.1147 187.577 26.9292C187.83 26.7375 187.957 26.4932 187.957 26.1963C187.957 26.0107 187.904 25.8499 187.799 25.7139C187.7 25.5716 187.536 25.4294 187.308 25.2871C187.085 25.1449 186.485 24.8542 185.508 24.415C184.623 24.013 183.958 23.6234 183.513 23.2461C183.074 22.8688 182.746 22.4359 182.53 21.9473C182.319 21.4587 182.214 20.8804 182.214 20.2124C182.214 18.9631 182.669 17.9889 183.578 17.29C184.487 16.5911 185.737 16.2417 187.326 16.2417C188.73 16.2417 190.162 16.5664 191.622 17.2158L190.499 20.0454C189.231 19.464 188.136 19.1733 187.215 19.1733C186.739 19.1733 186.392 19.2568 186.176 19.4238C185.959 19.5908 185.851 19.798 185.851 20.0454C185.851 20.3114 185.987 20.5495 186.259 20.7598C186.538 20.9701 187.286 21.3535 188.504 21.9102C189.673 22.4359 190.484 23.0018 190.935 23.6079C191.393 24.2078 191.622 24.9655 191.622 25.8809ZM203.562 20.7505C203.562 22.2658 203.113 23.4378 202.216 24.2666C201.326 25.0892 200.058 25.5005 198.413 25.5005H197.383V30H193.718V16.4365H198.413C200.126 16.4365 201.412 16.8107 202.272 17.5591C203.132 18.3075 203.562 19.3713 203.562 20.7505ZM197.383 22.5132H198.051C198.601 22.5132 199.037 22.3586 199.359 22.0493C199.687 21.7401 199.851 21.3133 199.851 20.769C199.851 19.8537 199.343 19.396 198.329 19.396H197.383V22.5132ZM218.415 23.1997C218.415 25.4819 217.855 27.2168 216.735 28.4043C215.616 29.5918 213.977 30.1855 211.818 30.1855C209.691 30.1855 208.058 29.5887 206.92 28.395C205.788 27.2013 205.222 25.4634 205.222 23.1812C205.222 20.9237 205.785 19.2012 206.911 18.0137C208.042 16.82 209.685 16.2231 211.837 16.2231C213.995 16.2231 215.631 16.8138 216.745 17.9951C217.858 19.1764 218.415 20.9113 218.415 23.1997ZM209.082 23.1997C209.082 25.8221 209.994 27.1333 211.818 27.1333C212.746 27.1333 213.433 26.8148 213.878 26.1777C214.329 25.5407 214.555 24.548 214.555 23.1997C214.555 21.8452 214.326 20.8464 213.869 20.2031C213.417 19.5537 212.74 19.229 211.837 19.229C210 19.229 209.082 20.5526 209.082 23.1997ZM226.848 30H223.183V19.4331H219.871V16.4365H230.15V19.4331H226.848V30Z" fill="black"/>
<circle cx="7.25" cy="9.25" r="7.25" fill="#025EAA"/>
<line x1="41" y1="34" x2="231" y2="34" stroke="#025EAA" stroke-width="2"/>
<path fill-rule="evenodd" clip-rule="evenodd" d="M17 9.5C17 14.7467 12.7467 19 7.5 19C4.9185 19 2.57748 17.9703 0.865258 16.2993C0.301763 18.269 0 20.3493 0 22.5C0 34.9264 10.0736 45 22.5 45C31.9188 45 39.9858 39.2127 43.3391 31H40.811H40.0601H38.811H37.0601H35.0601L40.855 14.5137H42.855H43.5414C40.3196 6.0297 32.1139 0 22.5 0C19.2177 0 16.0996 0.702813 13.2879 1.96616C15.5453 3.70298 17 6.43161 17 9.5ZM29.5 22.25C29.5 26.2541 26.2541 29.5 22.25 29.5C18.2459 29.5 15 26.2541 15 22.25C15 18.2459 18.2459 15 22.25 15C26.2541 15 29.5 18.2459 29.5 22.25Z" fill="#025EAA"/>
</svg>
