<svg width="46" height="46" viewBox="0 0 46 46" fill="none" xmlns="http://www.w3.org/2000/svg">
<path fill-rule="evenodd" clip-rule="evenodd" d="M23 46C35.7025 46 46 35.7025 46 23C46 10.2975 35.7025 0 23 0C10.2975 0 0 10.2975 0 23C0 35.7025 10.2975 46 23 46ZM23.16 44.32C34.8463 44.32 44.32 34.8463 44.32 23.16C44.32 11.4737 34.8463 2 23.16 2C11.4737 2 2 11.4737 2 23.16C2 34.8463 11.4737 44.32 23.16 44.32Z" fill="#025EAA"/>
<ellipse cx="22.9996" cy="21.16" rx="7.36" ry="9.2" fill="#025EAA"/>
<path d="M36.3402 39.5601C36.3402 42.6087 31.0817 44.6201 23.4602 44.6201C15.8387 44.6201 9.2002 42.6087 9.2002 39.5601C9.2002 36.5115 15.3787 29.4401 23.0002 29.4401C30.6217 29.4401 36.3402 36.5115 36.3402 39.5601Z" fill="#025EAA"/>
</svg>
