<svg width="50" height="60" viewBox="0 0 50 60" fill="none" xmlns="http://www.w3.org/2000/svg">
<mask id="mask0" mask-type="alpha" maskUnits="userSpaceOnUse" x="0" y="0" width="28" height="60">
<path fill-rule="evenodd" clip-rule="evenodd" d="M8.54805 50.6856C13.3633 55.7357 19.7458 59.0175 26.6631 60L27.3388 55.2668C22.3965 53.905 17.8798 51.3561 14.2732 47.8549C9.7288 43.4433 6.89506 37.7778 6.23044 31.7749C5.56583 25.772 7.10921 19.7829 10.6109 14.7766C13.5993 10.5041 17.8649 7.16078 22.8791 5.12178L21.1541 0C14.5308 2.21952 8.85208 6.60316 5.03661 12.4417C1.22114 18.2802 -0.50784 25.232 0.129402 32.1723C0.766643 39.1127 3.73283 45.6356 8.54805 50.6856Z" fill="black"/>
<rect width="2.06863" height="3.40671" transform="matrix(0.937715 -0.347406 0.348952 0.937141 20.7986 5.46631)" fill="black"/>
<rect width="2.06563" height="3.41165" transform="matrix(0.55328 -0.832995 0.834279 0.551342 8.98663 16.9434)" fill="black"/>
<rect width="2.06404" height="3.41427" transform="matrix(-0.018061 -0.999837 0.999839 -0.0179701 6.03894 31.4346)" fill="black"/>
<rect width="2.06617" height="3.41076" transform="matrix(-0.639917 -0.768444 0.770029 -0.638008 11.6674 46.3862)" fill="black"/>
<rect width="2.06908" height="3.40596" transform="matrix(-0.983198 -0.182545 0.183438 -0.983031 27.275 55.843)" fill="black"/>
</mask>
<g mask="url(#mask0)">
<rect width="23.5235" height="20.7719" transform="matrix(0.728978 0.684537 -0.686372 0.727251 15.8977 -8.18604)" fill="#4FE61B"/>
<rect width="23.5401" height="20.7572" transform="matrix(0.900246 0.435382 -0.437165 0.899381 0.866211 6.54932)" fill="#98FFAF"/>
<rect width="23.5509" height="16.9122" transform="matrix(0.996475 -0.0838915 0.0843132 0.996439 -8.20795 23.2607)" fill="#FFF282"/>
<rect width="23.5347" height="17.2518" transform="matrix(0.848417 -0.529329 0.531253 0.847213 -6.56403 43.5659)" fill="#FFC582"/>
<rect width="23.5122" height="17.2684" transform="matrix(0.583939 -0.811798 0.813192 0.581996 6.56628 58.3821)" fill="#FF8282"/>
</g>
<ellipse rx="3.54276" ry="3.3264" transform="matrix(0.998873 -0.047462 0.0477017 0.998862 42.3181 30.1059)" fill="black"/>
<path d="M27.7464 50.0943L39.4019 29.5689L43.856 32.4109L27.7464 50.0943Z" fill="black"/>
</svg>
