<svg width="23" height="22" viewBox="0 0 23 22" fill="none" xmlns="http://www.w3.org/2000/svg">
<path fill-rule="evenodd" clip-rule="evenodd" d="M15.0096 9.0048C15.0096 12.3212 12.3212 15.0096 9.0048 15.0096C5.68844 15.0096 3 12.3212 3 9.0048C3 5.68844 5.68844 3 9.0048 3C12.3212 3 15.0096 5.68844 15.0096 9.0048ZM14.6122 16.0511C13.0737 17.277 11.1248 18.0096 9.0048 18.0096C4.03159 18.0096 0 13.978 0 9.0048C0 4.03159 4.03159 0 9.0048 0C13.978 0 18.0096 4.03159 18.0096 9.0048C18.0096 10.774 17.4994 12.4239 16.6181 13.8157L22.7508 19.889L20.6192 22L14.6122 16.0511Z" fill="#025EAA"/>
</svg>
